<svg width="91" height="21" viewBox="0 0 91 21" fill="none" xmlns="http://www.w3.org/2000/svg">
<path d="M26.0167 3.89381C25.8395 3.81919 25.6297 3.76323 25.3872 3.72592C25.1447 3.67929 24.9161 3.65597 24.7016 3.65597C24.3938 3.65597 24.1327 3.69794 23.9182 3.78189C23.713 3.86583 23.5544 3.99641 23.4425 4.17362C23.3306 4.35083 23.2746 4.58401 23.2746 4.87314V9.46202C23.2746 9.75116 23.3259 9.98434 23.4285 10.1615C23.5311 10.3294 23.6757 10.4553 23.8622 10.5393C24.0581 10.6139 24.2959 10.6512 24.5757 10.6512C24.8648 10.6512 25.1493 10.6232 25.4291 10.5673C25.7089 10.5113 25.9514 10.4507 26.1566 10.3854C26.3711 10.3201 26.5017 10.2828 26.5484 10.2735L26.7722 11.7425C26.3711 11.8917 25.9794 12.0083 25.597 12.0922C25.2146 12.1855 24.8462 12.2321 24.4918 12.2321C23.9135 12.2321 23.4145 12.1295 22.9948 11.9244C22.5844 11.7098 22.2673 11.3974 22.0435 10.987C21.8289 10.5766 21.7217 10.0776 21.7217 9.49001V4.91512C21.7217 4.29953 21.8383 3.78189 22.0714 3.36217C22.3139 2.94246 22.6357 2.63 23.0368 2.42481C23.4472 2.21029 23.9088 2.10303 24.4218 2.10303C24.7576 2.10303 25.0934 2.145 25.4291 2.22894C25.7649 2.30356 26.1007 2.42481 26.4364 2.59269L26.0167 3.89381Z" fill="white"/>
<path d="M33.7943 9.86775C33.7943 10.6046 33.631 11.1829 33.3046 11.6026C32.9782 12.013 32.4325 12.2555 31.6677 12.3301L31.1781 11.1549C31.3273 11.1362 31.4672 11.0989 31.5978 11.043C31.7284 10.987 31.8403 10.9077 31.9335 10.8051C32.0268 10.6932 32.1014 10.5533 32.1574 10.3854C32.2134 10.2175 32.2413 10.0077 32.2413 9.75582V8.73452C32.0735 8.8651 31.8962 8.97236 31.7097 9.0563C31.5325 9.13092 31.346 9.18221 31.1501 9.2102C30.9542 9.23818 30.749 9.25217 30.5345 9.25217C29.9469 9.25217 29.4246 9.13092 28.9676 8.88841C28.5199 8.64591 28.1701 8.30548 27.9183 7.86711C27.6665 7.41941 27.5406 6.88777 27.5406 6.27219V2.27091H29.0935V6.14628C29.0935 6.51003 29.1541 6.82249 29.2754 7.08364C29.3966 7.33547 29.5785 7.52667 29.821 7.65725C30.0728 7.78783 30.3899 7.85312 30.7723 7.85312C30.9682 7.85312 31.1547 7.81581 31.332 7.74119C31.5092 7.65725 31.6631 7.54999 31.7936 7.41941C31.9335 7.27951 32.0408 7.12095 32.1154 6.94374C32.1994 6.76652 32.2413 6.57998 32.2413 6.38412V2.27091H33.7943V9.86775Z" fill="white"/>
<path d="M37.8439 2.27091C38.3849 2.27091 38.8559 2.36885 39.257 2.56471C39.6673 2.76058 39.9844 3.04505 40.2083 3.41813C40.4321 3.78189 40.5441 4.22492 40.5441 4.74723C40.5441 5.03637 40.5068 5.30219 40.4321 5.54469C40.3669 5.78719 40.2643 6.00637 40.1244 6.20224C39.9844 6.39811 39.8119 6.57066 39.6067 6.71989C39.8865 6.84114 40.1337 7.01369 40.3482 7.23754C40.572 7.46138 40.7446 7.73653 40.8658 8.06298C40.9964 8.38009 41.0617 8.75317 41.0617 9.18221C41.0617 9.76049 40.9451 10.2688 40.7119 10.7072C40.4788 11.1362 40.1383 11.472 39.6907 11.7145C39.2523 11.9477 38.7067 12.0643 38.0538 12.0643H34.9759V2.27091H37.8439ZM37.2004 6.27219C37.5641 6.27219 37.8579 6.23489 38.0818 6.16027C38.3149 6.07633 38.4828 5.94108 38.5854 5.75454C38.6973 5.55868 38.7533 5.29752 38.7533 4.97108C38.7533 4.68194 38.702 4.45343 38.5994 4.28554C38.4968 4.11766 38.3383 3.99641 38.1237 3.92179C37.9185 3.84717 37.6574 3.80987 37.3403 3.80987H36.5288V6.27219H37.2004ZM37.6481 10.6372C37.8812 10.6372 38.1237 10.5999 38.3756 10.5253C38.6274 10.4414 38.8419 10.2921 39.0191 10.0776C39.1963 9.86309 39.2849 9.55529 39.2849 9.15423C39.2849 8.83712 39.2196 8.57596 39.0891 8.37077C38.9585 8.16557 38.7626 8.01168 38.5015 7.90908C38.2403 7.80648 37.9092 7.75518 37.5082 7.75518H36.5288V10.6372H37.6481Z" fill="white"/>
<path d="M42.1897 12.0643V2.27091H46.8764V3.80987H43.7426V6.27219H45.6593L45.2256 7.74119H43.7426V10.6512H46.8485V12.0643H42.1897Z" fill="white"/>
<path d="M51.0734 2.27091C51.4372 2.27091 51.8009 2.32221 52.1647 2.42481C52.5284 2.52741 52.8595 2.70462 53.158 2.95645C53.4565 3.20828 53.6943 3.5627 53.8715 4.01972C54.0487 4.46742 54.1373 5.03637 54.1373 5.72656C54.1373 6.27686 54.086 6.75253 53.9834 7.15359C53.8902 7.55465 53.7549 7.89043 53.5777 8.16091C53.4098 8.43139 53.214 8.64591 52.9901 8.80447L54.1933 12.0643H52.5424L51.5771 9.30813C51.5211 9.31746 51.4652 9.32212 51.4092 9.32212C51.3533 9.32212 51.2973 9.32212 51.2413 9.32212C51.1854 9.32212 51.1294 9.32212 51.0734 9.32212H49.5765V12.0643H48.0235V2.27091H51.0734ZM50.4998 7.85312C50.8636 7.85312 51.176 7.8298 51.4372 7.78317C51.6983 7.73653 51.9129 7.64326 52.0808 7.50336C52.2486 7.35412 52.3699 7.1396 52.4445 6.85979C52.5284 6.57998 52.5704 6.20224 52.5704 5.72656C52.5704 5.2882 52.5284 4.9431 52.4445 4.69127C52.3699 4.43011 52.2486 4.23891 52.0808 4.11766C51.9129 3.98708 51.6983 3.90314 51.4372 3.86583C51.176 3.82852 50.8636 3.80987 50.4998 3.80987H49.5765V7.85312H50.4998Z" fill="white"/>
<path d="M60.1705 3.93578C59.9839 3.85184 59.788 3.78189 59.5829 3.72592C59.387 3.66996 59.1865 3.62799 58.9813 3.60001C58.7761 3.57203 58.5662 3.55804 58.3517 3.55804C58.2025 3.55804 58.0346 3.57669 57.8481 3.614C57.6708 3.64198 57.4983 3.69328 57.3304 3.76789C57.1625 3.84251 57.0226 3.94511 56.9107 4.07569C56.8081 4.20626 56.7568 4.36949 56.7568 4.56535C56.7568 4.76122 56.8221 4.93843 56.9527 5.09699C57.0926 5.24622 57.2745 5.38613 57.4983 5.51671C57.7221 5.64728 57.974 5.77786 58.2538 5.90844C58.5429 6.02969 58.8367 6.16493 59.1352 6.31416C59.443 6.45407 59.7368 6.61263 60.0166 6.78984C60.3057 6.96705 60.5622 7.17225 60.786 7.40542C61.0099 7.6386 61.1871 7.90908 61.3177 8.21687C61.4576 8.52466 61.5275 8.87909 61.5275 9.28015C61.5275 9.80246 61.4342 10.2502 61.2477 10.6232C61.0612 10.9963 60.8 11.3041 60.4643 11.5466C60.1378 11.7798 59.7647 11.9523 59.345 12.0643C58.9253 12.1762 58.4823 12.2321 58.0159 12.2321C57.6149 12.2321 57.2138 12.1762 56.8128 12.0643C56.421 11.9617 56.048 11.8078 55.6935 11.6026C55.3484 11.3974 55.0407 11.1409 54.7702 10.8331L55.6236 9.7978C55.8288 10.0123 56.062 10.1942 56.3231 10.3434C56.5936 10.4833 56.8734 10.5906 57.1625 10.6652C57.461 10.7398 57.7548 10.7771 58.0439 10.7771C58.2678 10.7771 58.4869 10.7491 58.7015 10.6932C58.916 10.6279 59.1119 10.5346 59.2891 10.4134C59.4663 10.2921 59.6062 10.1382 59.7088 9.95169C59.8114 9.76515 59.8627 9.54597 59.8627 9.29414C59.8627 9.04231 59.7974 8.82313 59.6668 8.63659C59.5362 8.44072 59.359 8.26817 59.1352 8.11894C58.9113 7.96038 58.6595 7.81581 58.3797 7.68523C58.0999 7.54533 57.8107 7.41009 57.5123 7.27951C57.2232 7.1396 56.9387 6.99037 56.6589 6.83181C56.3791 6.66393 56.1272 6.47739 55.9034 6.27219C55.6796 6.05767 55.5023 5.81517 55.3718 5.54469C55.2412 5.26488 55.1759 4.9431 55.1759 4.57934C55.1759 4.13165 55.2738 3.7539 55.4697 3.44611C55.6656 3.129 55.9221 2.87717 56.2392 2.69063C56.5656 2.49476 56.9154 2.35486 57.2884 2.27091C57.6615 2.17764 58.0253 2.13101 58.3797 2.13101C58.6408 2.13101 58.8973 2.14966 59.1492 2.18697C59.401 2.22428 59.6528 2.28024 59.9046 2.35486C60.1565 2.42947 60.3943 2.52741 60.6181 2.64866L60.1705 3.93578Z" fill="white"/>
<path d="M67.1746 6.27219V2.27091H68.7135V12.0643H67.1746V7.74119H64.2226V12.0643H62.6697V2.27091H64.2226V6.27219H67.1746Z" fill="white"/>
<path d="M71.5778 12.0643H69.9793V2.30917H71.5778V12.0643Z" fill="white"/>
<path d="M72.8209 12.0643V2.27091H77.5077V3.80987H74.3738V6.27219H76.2905L75.8568 7.74119H74.3738V10.6512H77.4797V12.0643H72.8209Z" fill="white"/>
<path d="M78.6548 12.0643V2.27091H80.2077V10.6372H83.7193V12.0643H78.6548Z" fill="white"/>
<path d="M87.4744 2.27091C88.1459 2.27091 88.7242 2.39683 89.2092 2.64866C89.6942 2.89116 90.0673 3.24558 90.3284 3.71193C90.5989 4.17828 90.7341 4.74723 90.7341 5.41877V9.16822C90.7341 9.78381 90.6222 10.3108 90.3984 10.7492C90.1838 11.1782 89.8527 11.5046 89.4051 11.7285C88.9667 11.9523 88.4164 12.0643 87.7542 12.0643H84.8302V2.27091H87.4744ZM87.5443 10.6372C87.9361 10.6372 88.2439 10.5953 88.4677 10.5113C88.6915 10.4274 88.8501 10.3201 88.9434 10.1895C89.046 10.0496 89.1113 9.90506 89.1392 9.75582C89.1672 9.59727 89.1812 9.44803 89.1812 9.30813V5.27887C89.1812 4.9431 89.1252 4.67261 89.0133 4.46742C88.9014 4.2529 88.7289 4.09434 88.4957 3.99174C88.2718 3.88915 87.978 3.83785 87.6143 3.83785H86.3831V10.6372H87.5443Z" fill="white"/>
<path d="M90.0761 17.6756C90.0032 17.6756 89.9668 17.6386 89.9668 17.5645V17.4929C89.9668 17.4213 90.0032 17.3855 90.0761 17.3855H90.1458C90.2173 17.3855 90.2531 17.4213 90.2531 17.4929V17.5645C90.2531 17.6386 90.2173 17.6756 90.1458 17.6756H90.0761Z" fill="white"/>
<path d="M89.9385 17.5644V17.4928C89.9385 17.4524 89.9488 17.4169 89.9744 17.3918C89.9999 17.3667 90.0358 17.3567 90.0765 17.3567V17.3854L90.0697 17.3855C90.0014 17.3877 89.9672 17.4234 89.9672 17.4928V17.5644L89.9673 17.5712C89.9695 17.6385 90.0036 17.6732 90.0697 17.6754L90.0765 17.6755H90.1462L90.1528 17.6754C90.2178 17.6732 90.2513 17.6385 90.2534 17.5712L90.2535 17.5644V17.4928C90.2535 17.4234 90.2199 17.3877 90.1528 17.3855L90.1462 17.3854V17.3567C90.1864 17.3567 90.2218 17.3668 90.247 17.392C90.2722 17.4171 90.2823 17.4526 90.2823 17.4928V17.5644C90.2823 17.6056 90.2723 17.6419 90.2474 17.6677C90.2222 17.6937 90.1866 17.7043 90.1462 17.7043H90.0765C90.0355 17.7043 89.9995 17.6938 89.974 17.6679C89.9486 17.642 89.9385 17.6057 89.9385 17.5644ZM90.1462 17.3567V17.3854H90.0765V17.3567H90.1462Z" fill="white"/>
<path d="M86.3796 17.6755C86.3131 17.6755 86.2798 17.6422 86.2798 17.5757V15.3472C86.2798 15.2806 86.3131 15.2473 86.3796 15.2473H87.2876C87.6003 15.2473 87.8276 15.3189 87.9695 15.4621C88.1127 15.6052 88.1843 15.8332 88.1843 16.1459V16.7769C88.1843 17.0896 88.1127 17.3176 87.9695 17.4608C87.8276 17.6039 87.6003 17.6755 87.2876 17.6755H86.3796ZM86.4776 17.4777H87.2876C87.4584 17.4777 87.5947 17.4551 87.6964 17.4099C87.7994 17.3647 87.8734 17.2912 87.9187 17.1895C87.9639 17.0865 87.9865 16.949 87.9865 16.7769V16.1459C87.9865 15.9751 87.9639 15.8388 87.9187 15.7371C87.8734 15.6341 87.7994 15.56 87.6964 15.5148C87.5947 15.4683 87.4584 15.4451 87.2876 15.4451H86.4776V17.4777Z" fill="white"/>
<path d="M88.1842 16.7769V16.1458C88.1842 15.8331 88.1126 15.6052 87.9695 15.462C87.8275 15.3188 87.6002 15.2472 87.2875 15.2472V15.2185C87.6037 15.2185 87.8401 15.2908 87.9898 15.4417L88.0037 15.4561C88.1451 15.6074 88.2129 15.8394 88.2129 16.1458V16.7769C88.2129 17.0931 88.1406 17.33 87.9898 17.4809C87.8402 17.6318 87.6037 17.7042 87.2875 17.7042H86.3796C86.3418 17.7042 86.3083 17.6947 86.2844 17.6708C86.2604 17.6468 86.251 17.6133 86.251 17.5756V15.3471C86.251 15.3094 86.2604 15.2758 86.2844 15.2519C86.3083 15.228 86.3418 15.2185 86.3796 15.2185V15.2472L86.3675 15.2476C86.309 15.2515 86.2797 15.2847 86.2797 15.3471V17.5756L86.2801 17.5877C86.2837 17.6423 86.3129 17.6714 86.3675 17.675L86.3796 17.6754H87.2875L87.3166 17.6752C87.6143 17.6709 87.832 17.5994 87.9695 17.4607C88.1081 17.322 88.1796 17.1037 88.184 16.8059L88.1842 16.7769ZM87.9577 16.7769V16.1458C87.9577 15.9771 87.9353 15.8453 87.8923 15.7487L87.8923 15.7486C87.85 15.6522 87.7811 15.5834 87.6848 15.541L87.6846 15.5409L87.6844 15.5409C87.5878 15.4968 87.4561 15.4737 87.2875 15.4737H86.5062V17.4489H87.2875V17.4776H86.4775V15.445H87.2875C87.4583 15.445 87.5946 15.4683 87.6963 15.5147C87.7993 15.5599 87.8734 15.634 87.9186 15.737C87.9638 15.8387 87.9864 15.975 87.9864 16.1458V16.7769L87.9861 16.8087C87.9835 16.966 87.961 17.0929 87.9186 17.1894C87.8734 17.2911 87.7993 17.3646 87.6963 17.4098L87.6768 17.418C87.5774 17.4578 87.4476 17.4776 87.2875 17.4776V17.4489C87.4562 17.4489 87.588 17.4265 87.6846 17.3836L87.6848 17.3835C87.7812 17.3411 87.8501 17.2729 87.8923 17.1777C87.9353 17.0798 87.9577 16.9468 87.9577 16.7769ZM87.2875 15.2185V15.2472H86.3796V15.2185H87.2875Z" fill="white"/>
<path d="M83.6541 17.6776C83.6239 17.6776 83.5995 17.6688 83.5806 17.6512C83.563 17.6336 83.5542 17.6097 83.5542 17.5796V15.4434H82.7537C82.7235 15.4434 82.699 15.4346 82.6802 15.417C82.6626 15.3994 82.6538 15.3756 82.6538 15.3454C82.6538 15.3153 82.6626 15.2914 82.6802 15.2739C82.699 15.255 82.7235 15.2456 82.7537 15.2456H84.5545C84.5847 15.2456 84.6085 15.255 84.6261 15.2739C84.6437 15.2914 84.6525 15.3153 84.6525 15.3454C84.6525 15.3756 84.6437 15.3994 84.6261 15.417C84.6085 15.4346 84.5847 15.4434 84.5545 15.4434H83.752V17.5796C83.752 17.6085 83.7426 17.6324 83.7238 17.6512C83.7062 17.6688 83.683 17.6776 83.6541 17.6776Z" fill="white"/>
<path d="M83.5254 17.5798V15.4723H82.7536C82.7175 15.4723 82.6855 15.4616 82.6605 15.4382L82.6601 15.4379L82.6598 15.4375C82.6357 15.4134 82.625 15.3816 82.625 15.3456C82.625 15.3096 82.6357 15.2778 82.6598 15.2537C82.6847 15.2288 82.7169 15.217 82.7536 15.217V15.2458L82.748 15.2459C82.7204 15.247 82.6978 15.2564 82.6801 15.274C82.6625 15.2916 82.6537 15.3155 82.6537 15.3456L82.6541 15.3566C82.6561 15.3816 82.6647 15.4018 82.6801 15.4172C82.6966 15.4326 82.7174 15.4412 82.7425 15.4432L82.7536 15.4436H83.5542V17.5798C83.5542 17.6099 83.563 17.6338 83.5805 17.6514C83.597 17.6667 83.6178 17.6754 83.643 17.6773L83.654 17.6777C83.6811 17.6777 83.7032 17.67 83.7203 17.6546L83.7237 17.6514C83.7414 17.6337 83.7508 17.6116 83.7519 17.5851L83.752 17.5798V15.4436H84.5544L84.5654 15.4432C84.5887 15.4414 84.6077 15.4338 84.6226 15.4204L84.626 15.4172C84.6414 15.4018 84.6501 15.3816 84.652 15.3566L84.6524 15.3456C84.6524 15.3155 84.6436 15.2916 84.626 15.274C84.6096 15.2564 84.5875 15.247 84.56 15.2459L84.5544 15.2458V15.217C84.5907 15.217 84.6225 15.2286 84.6463 15.2537C84.6704 15.2778 84.6811 15.3096 84.6811 15.3456C84.6811 15.3816 84.6704 15.4134 84.6464 15.4375C84.6223 15.4616 84.5905 15.4723 84.5544 15.4723H83.7807V17.5798C83.7807 17.6156 83.7687 17.647 83.744 17.6717C83.7202 17.6955 83.6892 17.7065 83.654 17.7065C83.6179 17.7065 83.586 17.6957 83.561 17.6724L83.5606 17.672L83.5602 17.6717C83.5361 17.6476 83.5254 17.6158 83.5254 17.5798ZM84.5544 15.217V15.2458H82.7536V15.217H84.5544Z" fill="white"/>
<path d="M80.2854 17.6755C80.2188 17.6755 80.1855 17.6422 80.1855 17.5757V15.3472C80.1855 15.2806 80.2188 15.2473 80.2854 15.2473C80.3507 15.2473 80.3833 15.2806 80.3833 15.3472V17.4777H81.5287C81.5952 17.4777 81.6285 17.5104 81.6285 17.5757C81.6285 17.6422 81.5952 17.6755 81.5287 17.6755H80.2854Z" fill="white"/>
<path d="M80.3832 15.3471C80.3832 15.2847 80.3546 15.2515 80.2972 15.2476L80.2853 15.2472C80.2188 15.2472 80.1855 15.2805 80.1855 15.3471V17.5756L80.1859 17.5877C80.1895 17.6423 80.2186 17.6714 80.2732 17.675L80.2853 17.6754H81.5286L81.5407 17.675C81.5953 17.6714 81.6244 17.6423 81.6281 17.5877L81.6284 17.5756C81.6284 17.5144 81.5992 17.4818 81.5407 17.478L81.5286 17.4776V17.4489C81.5662 17.4489 81.5996 17.4581 81.6236 17.4816C81.6476 17.5052 81.6571 17.5384 81.6571 17.5756C81.6571 17.6133 81.6477 17.6468 81.6238 17.6708C81.5999 17.6947 81.5663 17.7042 81.5286 17.7042H80.2853C80.2476 17.7042 80.2141 17.6947 80.1901 17.6708C80.1662 17.6468 80.1567 17.6133 80.1567 17.5756V15.3471C80.1567 15.3094 80.1662 15.2758 80.1901 15.2519C80.2141 15.228 80.2476 15.2185 80.2853 15.2185C80.3225 15.2185 80.3557 15.228 80.3793 15.2521C80.4028 15.276 80.412 15.3095 80.412 15.3471V17.4489H81.5286V17.4776H80.3832V15.3471Z" fill="white"/>
<path d="M76.0238 17.6756C75.951 17.6756 75.9146 17.6386 75.9146 17.5645V17.4929C75.9146 17.4213 75.951 17.3855 76.0238 17.3855H76.0935C76.1651 17.3855 76.2009 17.4213 76.2009 17.4929V17.5645C76.2009 17.6386 76.1651 17.6756 76.0935 17.6756H76.0238Z" fill="white"/>
<path d="M75.8857 17.5644V17.4928C75.8857 17.4524 75.896 17.4169 75.9217 17.3918C75.9472 17.3667 75.983 17.3567 76.0237 17.3567V17.3854L76.017 17.3855C75.9487 17.3877 75.9145 17.4234 75.9145 17.4928V17.5644L75.9146 17.5712C75.9167 17.6385 75.9509 17.6732 76.017 17.6754L76.0237 17.6755H76.0934L76.1 17.6754C76.165 17.6732 76.1986 17.6385 76.2007 17.5712L76.2008 17.5644V17.4928C76.2008 17.4234 76.1672 17.3877 76.1 17.3855L76.0934 17.3854V17.3567C76.1336 17.3567 76.1691 17.3668 76.1943 17.392C76.2195 17.4171 76.2295 17.4526 76.2295 17.4928V17.5644C76.2295 17.6056 76.2196 17.6419 76.1946 17.6677C76.1695 17.6937 76.1339 17.7043 76.0934 17.7043H76.0237C75.9828 17.7043 75.9468 17.6938 75.9213 17.6679C75.8959 17.642 75.8857 17.6057 75.8857 17.5644ZM76.0934 17.3567V17.3854H76.0237V17.3567H76.0934Z" fill="white"/>
<path d="M73.7801 17.6776C73.7499 17.6776 73.7254 17.6688 73.7066 17.6512C73.689 17.6336 73.6802 17.6097 73.6802 17.5796V15.4434H72.8796C72.8495 15.4434 72.825 15.4346 72.8062 15.417C72.7886 15.3994 72.7798 15.3756 72.7798 15.3454C72.7798 15.3153 72.7886 15.2914 72.8062 15.2739C72.825 15.255 72.8495 15.2456 72.8796 15.2456H74.6805C74.7106 15.2456 74.7345 15.255 74.7521 15.2739C74.7697 15.2914 74.7785 15.3153 74.7785 15.3454C74.7785 15.3756 74.7697 15.3994 74.7521 15.417C74.7345 15.4346 74.7106 15.4434 74.6805 15.4434H73.878V17.5796C73.878 17.6085 73.8686 17.6324 73.8498 17.6512C73.8322 17.6688 73.8089 17.6776 73.7801 17.6776Z" fill="white"/>
<path d="M73.6514 17.5798V15.4723H72.8796C72.8435 15.4723 72.8115 15.4616 72.7865 15.4382L72.7861 15.4379L72.7858 15.4375C72.7617 15.4134 72.751 15.3816 72.751 15.3456C72.751 15.3096 72.7617 15.2778 72.7858 15.2537C72.8107 15.2288 72.8429 15.217 72.8796 15.217V15.2458L72.874 15.2459C72.8464 15.247 72.8237 15.2564 72.8061 15.274L72.8029 15.2774C72.7874 15.2946 72.7797 15.3174 72.7797 15.3456L72.7801 15.3566C72.782 15.3816 72.7907 15.4018 72.8061 15.4172C72.8226 15.4326 72.8434 15.4412 72.8685 15.4432L72.8796 15.4436H73.6801V17.5798C73.6801 17.6099 73.6889 17.6338 73.7065 17.6514C73.723 17.6667 73.7438 17.6754 73.7689 17.6773L73.78 17.6777C73.8071 17.6777 73.8292 17.67 73.8463 17.6546L73.8497 17.6514C73.8685 17.6325 73.8779 17.6086 73.8779 17.5798V15.4436H74.6804L74.6914 15.4432C74.7164 15.4412 74.7366 15.4326 74.752 15.4172C74.7674 15.4018 74.776 15.3816 74.778 15.3566L74.7784 15.3456C74.7784 15.3155 74.7696 15.2916 74.752 15.274C74.7355 15.2564 74.7135 15.247 74.686 15.2459L74.6804 15.2458V15.217C74.7167 15.217 74.7484 15.2286 74.7723 15.2537C74.7964 15.2778 74.8071 15.3096 74.8071 15.3456C74.8071 15.3816 74.7964 15.4134 74.7723 15.4375C74.7483 15.4616 74.7165 15.4723 74.6804 15.4723H73.9067V17.5798C73.9067 17.6156 73.8947 17.647 73.87 17.6717C73.8461 17.6955 73.8152 17.7065 73.78 17.7065C73.7439 17.7065 73.7119 17.6957 73.6869 17.6724L73.6862 17.6717C73.6621 17.6476 73.6514 17.6158 73.6514 17.5798ZM74.6804 15.217V15.2458H72.8796V15.217H74.6804Z" fill="white"/>
<path d="M70.3073 17.6756C70.2646 17.6756 70.2339 17.653 70.215 17.6078L69.2373 15.3887C69.221 15.3522 69.221 15.3221 69.2373 15.2982C69.2549 15.2744 69.2788 15.2593 69.3089 15.253C69.3604 15.2405 69.3962 15.2593 69.4163 15.3095L70.3582 17.4458H70.2885L71.2247 15.3095C71.2448 15.2593 71.2812 15.2405 71.334 15.253C71.3666 15.2593 71.3905 15.2744 71.4056 15.2982C71.4206 15.3221 71.4206 15.3522 71.4056 15.3887L70.4241 17.6078C70.4053 17.653 70.3732 17.6756 70.328 17.6756H70.3073Z" fill="white"/>
<path d="M71.2543 15.2324C71.2803 15.2189 71.3101 15.2179 71.341 15.2252L71.341 15.2253C71.3794 15.2329 71.4104 15.2516 71.4302 15.2831C71.4521 15.3177 71.4496 15.3584 71.4325 15.3998L71.4324 15.4001L71.4322 15.4004L70.451 17.6189L70.451 17.619C70.44 17.6453 70.4244 17.6671 70.4029 17.6823C70.3814 17.6975 70.356 17.7045 70.3284 17.7045H70.3077C70.281 17.7045 70.2565 17.6973 70.2356 17.6819C70.2151 17.6669 70.2 17.6453 70.1891 17.6195V17.6195L69.2114 15.4004L69.2115 15.4004C69.1929 15.3588 69.1901 15.3172 69.214 15.2822L69.2143 15.2818L69.2146 15.2814C69.2364 15.2518 69.2662 15.2331 69.3025 15.2253C69.3329 15.2179 69.3623 15.2189 69.3882 15.2325C69.4136 15.2459 69.4312 15.2693 69.443 15.2981L70.3235 17.2952L71.1988 15.2982C71.2106 15.2691 71.2285 15.2458 71.2543 15.2324ZM71.3344 15.2532C71.2816 15.2406 71.2452 15.2595 71.2251 15.3097L70.3236 17.3666L69.4167 15.3097C69.3966 15.2595 69.3608 15.2406 69.3093 15.2532L69.3037 15.2545C69.2762 15.2614 69.2542 15.276 69.2377 15.2984L69.2349 15.303C69.2215 15.3261 69.2224 15.3547 69.2377 15.3888L70.2154 17.6079C70.2331 17.6503 70.2612 17.6728 70.2998 17.6755L70.3077 17.6757H70.3284L70.3368 17.6755C70.3776 17.6728 70.4069 17.6503 70.4245 17.6079L71.4059 15.3888C71.4201 15.3547 71.421 15.3261 71.4086 15.303L71.4059 15.2984C71.3909 15.2746 71.367 15.2595 71.3344 15.2532Z" fill="white"/>
<path d="M66.3103 17.6755C66.2437 17.6755 66.2104 17.6422 66.2104 17.5757V15.3472C66.2104 15.2806 66.2437 15.2473 66.3103 15.2473H67.1919C67.4066 15.2473 67.5686 15.3026 67.6779 15.4131C67.7884 15.5236 67.8437 15.6862 67.8437 15.901V16.014C67.8437 16.2275 67.7884 16.3895 67.6779 16.5C67.5686 16.6105 67.4066 16.6658 67.1919 16.6658H66.4082V17.5757C66.4082 17.6422 66.3756 17.6755 66.3103 17.6755ZM66.4082 16.468H67.1919C67.3501 16.468 67.465 16.4322 67.5366 16.3606C67.6095 16.2878 67.6459 16.1722 67.6459 16.014V15.901C67.6459 15.7415 67.6095 15.626 67.5366 15.5544C67.465 15.4815 67.3501 15.4451 67.1919 15.4451H66.4082V16.468Z" fill="white"/>
<path d="M66.1816 17.5756V15.3471C66.1816 15.3094 66.1911 15.2758 66.215 15.2519C66.239 15.228 66.2725 15.2185 66.3102 15.2185V15.2472L66.2981 15.2476C66.2396 15.2515 66.2104 15.2847 66.2104 15.3471V17.5756L66.2108 17.5877C66.2144 17.6423 66.2435 17.6714 66.2981 17.675L66.3102 17.6754C66.3714 17.6754 66.404 17.6462 66.4078 17.5877L66.4082 17.5756V16.6657H67.1918L67.2118 16.6656C67.4166 16.6622 67.572 16.607 67.6778 16.4999C67.7849 16.3929 67.8401 16.2375 67.8434 16.0338L67.8436 16.0139V15.9009C67.8436 15.6862 67.7883 15.5235 67.6778 15.413C67.5686 15.3025 67.4065 15.2472 67.1918 15.2472V15.2185C67.4112 15.2185 67.5817 15.275 67.6981 15.3927L67.709 15.4039C67.8193 15.5211 67.8723 15.6883 67.8723 15.9009V16.0139C67.8723 16.2321 67.8158 16.4025 67.6982 16.5201L67.6982 16.5201C67.5818 16.6379 67.4112 16.6945 67.1918 16.6945H66.4369V17.5756C66.4369 17.6132 66.4277 17.6466 66.4042 17.6706C66.3806 17.6946 66.3474 17.7042 66.3102 17.7042C66.2725 17.7042 66.239 17.6947 66.215 17.6708C66.1911 17.6468 66.1816 17.6133 66.1816 17.5756ZM67.6171 16.0139V15.9009C67.6171 15.7449 67.5813 15.6386 67.5164 15.5748L67.516 15.5744C67.4522 15.5095 67.3465 15.4737 67.1918 15.4737H66.4369V16.4392H67.1918V16.4679H66.4082V15.445H67.1918C67.35 15.445 67.4649 15.4815 67.5365 15.5543C67.6094 15.6259 67.6458 15.7414 67.6458 15.9009V16.0139L67.6457 16.0286C67.6435 16.1793 67.6071 16.29 67.5365 16.3605L67.5297 16.3671C67.4577 16.4343 67.3451 16.4679 67.1918 16.4679V16.4392C67.3466 16.4392 67.4524 16.4041 67.5162 16.3402C67.5814 16.2751 67.6171 16.1685 67.6171 16.0139ZM67.1918 15.2185V15.2472H66.3102V15.2185H67.1918Z" fill="white"/>
<path d="M60.9826 17.6717C60.7578 17.6717 60.5908 17.6221 60.4815 17.5229C60.3735 17.4224 60.3158 17.2648 60.3082 17.0501C60.307 17.0199 60.3151 16.9961 60.3327 16.9785C60.3516 16.9597 60.376 16.9502 60.4062 16.9502C60.4363 16.9502 60.4602 16.959 60.4778 16.9766C60.4954 16.9942 60.5054 17.0181 60.5079 17.0482C60.5129 17.2064 60.5506 17.317 60.6209 17.3798C60.6913 17.4425 60.8118 17.4739 60.9826 17.4739H61.5251C61.7035 17.4739 61.8272 17.4394 61.8962 17.3703C61.9666 17.3 62.0017 17.1769 62.0017 17.0011C62.0017 16.8228 61.9666 16.6991 61.8962 16.63C61.8272 16.5597 61.7035 16.5245 61.5251 16.5245H61.009C60.788 16.5245 60.626 16.473 60.523 16.37C60.42 16.2671 60.3685 16.1057 60.3685 15.8859C60.3685 15.6661 60.4194 15.5048 60.5211 15.4018C60.6241 15.2988 60.7855 15.2473 61.0052 15.2473H61.5327C61.7437 15.2473 61.9 15.2944 62.0017 15.3886C62.1047 15.4828 62.16 15.631 62.1675 15.8332C62.17 15.8633 62.1619 15.8878 62.143 15.9066C62.1254 15.9242 62.1009 15.933 62.0695 15.933C62.0407 15.933 62.0174 15.9242 61.9998 15.9066C61.9823 15.8891 61.9722 15.8652 61.9697 15.8351C61.9647 15.6906 61.9295 15.5895 61.8642 15.5318C61.7989 15.474 61.6884 15.4451 61.5327 15.4451H61.0052C60.8407 15.4451 60.7264 15.4778 60.6624 15.5431C60.5983 15.6071 60.5663 15.7214 60.5663 15.8859C60.5663 16.0504 60.5983 16.1653 60.6624 16.2306C60.7277 16.2947 60.8432 16.3267 61.009 16.3267H61.5251C61.7587 16.3267 61.9295 16.3813 62.0375 16.4906C62.1455 16.5986 62.1995 16.7688 62.1995 17.0011C62.1995 17.2334 62.1455 17.4036 62.0375 17.5116C61.9295 17.6184 61.7587 17.6717 61.5251 17.6717H60.9826Z" fill="white"/>
<path d="M60.4066 16.9214C60.4426 16.9214 60.4744 16.9321 60.4985 16.9562C60.5204 16.9781 60.5324 17.0065 60.5363 17.0392L60.5369 17.0457L60.537 17.0465V17.0472C60.542 17.2027 60.579 17.3033 60.6405 17.3582C60.7027 17.4138 60.8142 17.4451 60.983 17.4451V17.4739L60.9516 17.4735C60.8025 17.4699 60.6947 17.4406 60.6281 17.3855L60.6213 17.3797C60.5554 17.3208 60.5182 17.22 60.5096 17.0772L60.5083 17.0481C60.506 17.0199 60.497 16.9971 60.4814 16.9799L60.4782 16.9765C60.4606 16.959 60.4367 16.9502 60.4066 16.9502C60.3765 16.9502 60.352 16.9596 60.3331 16.9784C60.3155 16.996 60.3074 17.0199 60.3086 17.05C60.3162 17.2648 60.3739 17.4224 60.4819 17.5228C60.5878 17.619 60.7479 17.6685 60.9621 17.6715L60.983 17.6716H61.5255C61.7518 17.6716 61.9192 17.6216 62.0276 17.5214L62.0379 17.5115C62.1426 17.4069 62.1965 17.2439 62.1998 17.0226L62.1999 17.001C62.1999 16.7687 62.1459 16.5985 62.0379 16.4905C61.9299 16.3813 61.7591 16.3266 61.5255 16.3266V16.2979C61.7628 16.2979 61.9426 16.3533 62.0582 16.4702C62.1739 16.5858 62.2287 16.765 62.2287 17.001C62.2287 17.2371 62.1739 17.4162 62.0582 17.5318L62.0581 17.532C61.9425 17.6463 61.7627 17.7004 61.5255 17.7004H60.983C60.7547 17.7004 60.5794 17.6501 60.4626 17.5441L60.4624 17.5439V17.5439C60.3467 17.4362 60.2876 17.27 60.2799 17.0512L60.2798 17.0444C60.2797 17.0109 60.2899 16.981 60.3128 16.9581C60.3378 16.9332 60.3699 16.9214 60.4066 16.9214ZM61.5255 17.4451V17.4739H60.983V17.4451H61.5255ZM61.9734 17.001C61.9734 16.8247 61.9383 16.7111 61.8765 16.6504L61.8763 16.6502L61.8761 16.6501C61.8155 16.5883 61.7019 16.5532 61.5255 16.5532H61.0094C60.7846 16.5532 60.6137 16.5009 60.5031 16.3903C60.3925 16.2797 60.3402 16.1094 60.3402 15.8858C60.3402 15.6624 60.3918 15.4921 60.5011 15.3815L60.5012 15.3814C60.6118 15.2708 60.7821 15.2185 61.0056 15.2185V15.2472L60.9852 15.2474C60.7758 15.2505 60.6213 15.3019 60.5215 15.4017C60.4198 15.5047 60.3689 15.6661 60.3689 15.8858L60.3691 15.9063C60.3722 16.1156 60.4236 16.2702 60.5234 16.37C60.6231 16.4697 60.7783 16.5212 60.9889 16.5243L61.0094 16.5244H61.5255C61.7039 16.5244 61.8276 16.5596 61.8966 16.6299C61.967 16.699 62.0021 16.8227 62.0021 17.001C62.0021 17.1768 61.967 17.2999 61.8966 17.3703L61.89 17.3766C61.8198 17.4414 61.6983 17.4739 61.5255 17.4739V17.4451C61.702 17.4451 61.8157 17.4106 61.8763 17.3499C61.9384 17.2879 61.9734 17.1746 61.9734 17.001ZM61.5255 16.2979V16.3266H61.0094V16.2979H61.5255ZM60.5667 15.8858C60.5667 15.7213 60.5987 15.607 60.6628 15.543C60.7228 15.4818 60.827 15.4492 60.9754 15.4454L61.0056 15.445H61.5331C61.6888 15.445 61.7993 15.4739 61.8646 15.5317C61.9299 15.5894 61.9651 15.6906 61.9701 15.835C61.9726 15.8651 61.9827 15.889 62.0003 15.9066C62.0156 15.922 62.0354 15.9306 62.0594 15.9325L62.07 15.9329C62.0994 15.9329 62.1228 15.9252 62.14 15.9097L62.1434 15.9066C62.1623 15.8877 62.1704 15.8632 62.1679 15.8331C62.1604 15.6309 62.1051 15.4827 62.0021 15.3885C61.9036 15.2973 61.7538 15.2502 61.5527 15.2474L61.5331 15.2472V15.2185C61.7475 15.2185 61.9123 15.2663 62.0215 15.3673H62.0215C62.1321 15.4684 62.1887 15.6249 62.1965 15.8307L62.197 15.8376C62.1983 15.8721 62.1878 15.9028 62.1637 15.9269C62.1394 15.9512 62.1069 15.9617 62.07 15.9617C62.0348 15.9617 62.0038 15.9507 61.9799 15.9269C61.9566 15.9035 61.9444 15.8727 61.9415 15.8374L61.9414 15.8367L61.9414 15.836C61.9365 15.6945 61.9021 15.6032 61.8456 15.5532C61.7883 15.5026 61.6868 15.4737 61.5331 15.4737H61.0056C60.8432 15.4737 60.739 15.5063 60.6833 15.5631L60.6831 15.5633C60.6274 15.619 60.5955 15.7233 60.5955 15.8858C60.5955 16.0481 60.6273 16.1532 60.6831 16.2102C60.7401 16.266 60.8458 16.2979 61.0094 16.2979V16.3266C60.8488 16.3266 60.7353 16.2966 60.669 16.2365L60.6628 16.2306C60.6027 16.1693 60.5708 16.0645 60.5671 15.9161L60.5667 15.8858ZM61.5331 15.2185V15.2472H61.0056V15.2185H61.5331Z" fill="white"/>
<path d="M57.1413 17.6755C57.0748 17.6755 57.0415 17.6422 57.0415 17.5757V15.3472C57.0415 15.2806 57.0748 15.2473 57.1413 15.2473H58.5523C58.6188 15.2473 58.6521 15.2806 58.6521 15.3472C58.6521 15.4125 58.6188 15.4451 58.5523 15.4451H57.2393V16.3474H58.1077C58.1743 16.3474 58.2075 16.3801 58.2075 16.4454C58.2075 16.512 58.1743 16.5452 58.1077 16.5452H57.2393V17.4777H58.5523C58.6188 17.4777 58.6521 17.5104 58.6521 17.5757C58.6521 17.6422 58.6188 17.6755 58.5523 17.6755H57.1413Z" fill="white"/>
<path d="M57.0127 17.5756V15.3471C57.0127 15.3094 57.0222 15.2758 57.0461 15.2519C57.07 15.228 57.1036 15.2185 57.1413 15.2185V15.2472L57.1292 15.2476C57.0707 15.2515 57.0414 15.2847 57.0414 15.3471V17.5756L57.0418 17.5877C57.0455 17.6423 57.0746 17.6714 57.1292 17.675L57.1413 17.6754H58.5522L58.5643 17.675C58.6189 17.6714 58.648 17.6423 58.6516 17.5877L58.652 17.5756C58.652 17.5144 58.6228 17.4818 58.5643 17.478L58.5522 17.4776V17.4489C58.5898 17.4489 58.6233 17.4581 58.6472 17.4816C58.6712 17.5052 58.6808 17.5384 58.6808 17.5756C58.6808 17.6133 58.6713 17.6468 58.6474 17.6708C58.6235 17.6947 58.5899 17.7042 58.5522 17.7042H57.1413C57.1036 17.7042 57.07 17.6947 57.0461 17.6708C57.0222 17.6468 57.0127 17.6133 57.0127 17.5756ZM58.2075 16.4453C58.2075 16.3841 58.1782 16.3516 58.1197 16.3478L58.1076 16.3474V16.3186C58.1452 16.3186 58.1787 16.3279 58.2026 16.3513C58.2267 16.3749 58.2362 16.4081 58.2362 16.4453C58.2362 16.483 58.2267 16.5166 58.2028 16.5405C58.1789 16.5644 58.1453 16.5739 58.1076 16.5739H57.2679V17.4489H58.5522V17.4776H57.2392V16.5451H58.1076L58.1197 16.5448C58.1743 16.5411 58.2034 16.512 58.2071 16.4574L58.2075 16.4453ZM58.652 15.3471C58.652 15.2847 58.6228 15.2515 58.5643 15.2476L58.5522 15.2472V15.2185C58.5899 15.2185 58.6235 15.228 58.6474 15.2519C58.6713 15.2758 58.6808 15.3094 58.6808 15.3471C58.6808 15.3843 58.6712 15.4174 58.6472 15.441C58.6233 15.4645 58.5898 15.4737 58.5522 15.4737H57.2679V16.3186H58.1076V16.3474H57.2392V15.445H58.5522L58.5643 15.4447C58.6189 15.4411 58.648 15.4125 58.6516 15.3589L58.652 15.3471ZM58.5522 15.2185V15.2472H57.1413V15.2185H58.5522Z" fill="white"/>
<path d="M55.0344 17.6757C55.003 17.6757 54.9785 17.6669 54.9609 17.6493C54.9434 17.6317 54.9346 17.6072 54.9346 17.5758V15.3454C54.9346 15.314 54.9434 15.2896 54.9609 15.272C54.9785 15.2544 55.003 15.2456 55.0344 15.2456C55.0645 15.2456 55.0884 15.2544 55.106 15.272C55.1236 15.2896 55.1324 15.314 55.1324 15.3454V17.5758C55.1324 17.6072 55.1236 17.6317 55.106 17.6493C55.0884 17.6669 55.0645 17.6757 55.0344 17.6757Z" fill="white"/>
<path d="M55.1328 15.3456C55.1328 15.3142 55.124 15.2897 55.1064 15.2721C55.091 15.2568 55.0708 15.2481 55.0458 15.2462L55.0348 15.2458C55.0034 15.2458 54.9789 15.2546 54.9613 15.2721L54.9582 15.2755C54.9427 15.2928 54.935 15.3162 54.935 15.3456V17.576C54.935 17.6074 54.9438 17.6319 54.9613 17.6495C54.9767 17.6649 54.9974 17.6735 55.0234 17.6754L55.0348 17.6758C55.0631 17.6758 55.0858 17.6681 55.103 17.6527L55.1064 17.6495C55.124 17.6319 55.1328 17.6074 55.1328 17.576V15.3456ZM55.1615 17.576C55.1615 17.6129 55.151 17.6455 55.1267 17.6698C55.1026 17.6939 55.0709 17.7046 55.0348 17.7046C54.9979 17.7046 54.9653 17.6941 54.941 17.6698C54.9167 17.6455 54.9062 17.6129 54.9062 17.576V15.3456C54.9062 15.3087 54.9167 15.2761 54.941 15.2518C54.9653 15.2275 54.9979 15.217 55.0348 15.217C55.0709 15.217 55.1026 15.2278 55.1267 15.2518C55.151 15.2761 55.1615 15.3087 55.1615 15.3456V17.576Z" fill="white"/>
<path d="M51.9545 17.6755C51.682 17.6755 51.4829 17.6127 51.3573 17.4871C51.2317 17.3615 51.1689 17.1625 51.1689 16.89V16.0328C51.1689 15.7578 51.2311 15.5581 51.3554 15.4338C51.481 15.3095 51.6794 15.2473 51.9507 15.2473H52.4066C52.6377 15.2473 52.8097 15.2957 52.9227 15.3924C53.0357 15.4878 53.0979 15.6417 53.1092 15.8539C53.113 15.8878 53.1061 15.9135 53.0885 15.9311C53.0722 15.9487 53.0477 15.9575 53.015 15.9575C52.9522 15.9575 52.9177 15.9242 52.9114 15.8577C52.9026 15.7019 52.8599 15.5946 52.7833 15.5355C52.7067 15.4753 52.5811 15.4451 52.4066 15.4451H51.9507C51.8063 15.4451 51.6914 15.4639 51.606 15.5016C51.5206 15.538 51.459 15.5996 51.4214 15.6862C51.385 15.7716 51.3667 15.8872 51.3667 16.0328V16.89C51.3667 17.0356 51.3856 17.1512 51.4233 17.2366C51.4609 17.322 51.5225 17.3835 51.6079 17.4212C51.6933 17.4589 51.8088 17.4777 51.9545 17.4777H52.4066C52.5347 17.4777 52.6358 17.462 52.7099 17.4306C52.7852 17.3992 52.8386 17.3465 52.87 17.2724C52.9014 17.1983 52.9171 17.0959 52.9171 16.9653V16.7298L52.5045 16.7261C52.4392 16.7261 52.4066 16.6928 52.4066 16.6262C52.4066 16.5609 52.4392 16.5283 52.5045 16.5283L53.0169 16.5321C53.0822 16.5321 53.1149 16.5647 53.1149 16.63V16.9653C53.1149 17.214 53.059 17.3948 52.9472 17.5078C52.8354 17.6196 52.6552 17.6755 52.4066 17.6755H51.9545Z" fill="white"/>
<path d="M52.4065 17.4489V17.4776H51.9544V17.4489H52.4065ZM52.8883 16.9652V16.7582L52.5042 16.7547V16.7547C52.4671 16.7547 52.434 16.7452 52.4105 16.7212C52.387 16.6972 52.3778 16.6637 52.3778 16.6262C52.3778 16.5891 52.3871 16.556 52.4107 16.5324C52.4343 16.5088 52.4674 16.4995 52.5045 16.4995H52.5046L53.017 16.5032H53.017C53.054 16.5033 53.087 16.5126 53.1106 16.5361C53.1342 16.5598 53.1435 16.5928 53.1435 16.6299V16.9652C53.1435 17.2173 53.087 17.4072 52.9676 17.528L52.9674 17.5281C52.8479 17.6476 52.6585 17.7042 52.4065 17.7042H51.9544C51.6782 17.7042 51.4702 17.6406 51.3369 17.5074C51.2037 17.3741 51.1401 17.166 51.1401 16.8899V16.0328C51.1401 15.7543 51.2029 15.5455 51.335 15.4134L51.3351 15.4133C51.4684 15.2814 51.6758 15.2185 51.9506 15.2185V15.2472L51.9254 15.2474C51.667 15.2512 51.477 15.3133 51.3554 15.4337C51.231 15.5581 51.1689 15.7577 51.1689 16.0328V16.8899C51.1689 17.1624 51.2317 17.3615 51.3573 17.487C51.4789 17.6087 51.6695 17.6714 51.9291 17.6752L51.9544 17.6754H52.4065L52.4296 17.6753C52.6587 17.672 52.8277 17.6196 52.9365 17.5181L52.9471 17.5078C53.0589 17.3948 53.1148 17.2139 53.1148 16.9652V16.6299C53.1148 16.5687 53.0861 16.5362 53.0287 16.5324L53.0168 16.532L52.5045 16.5282C52.4391 16.5282 52.4065 16.5609 52.4065 16.6262L52.4069 16.6383C52.4107 16.6968 52.4432 16.726 52.5045 16.726L52.917 16.7298V16.9652L52.9168 16.9894C52.915 17.1085 52.8993 17.2028 52.8699 17.2723C52.8385 17.3464 52.7851 17.3991 52.7098 17.4305L52.6956 17.4362C52.6229 17.4638 52.5266 17.4776 52.4065 17.4776V17.4489C52.5327 17.4489 52.6295 17.4334 52.6986 17.4041L52.6987 17.404C52.7672 17.3755 52.815 17.3282 52.8434 17.2611C52.8727 17.1921 52.8883 17.0941 52.8883 16.9652ZM51.3666 16.8899V16.0328C51.3666 15.8871 51.3849 15.7715 51.4213 15.6861C51.4566 15.6049 51.5129 15.5458 51.5902 15.5087L51.6059 15.5015C51.686 15.4662 51.792 15.4474 51.9239 15.4452L51.9506 15.445H52.4065C52.581 15.445 52.7067 15.4752 52.7833 15.5355C52.8599 15.5945 52.9026 15.7019 52.9114 15.8576C52.9172 15.92 52.948 15.9531 53.0035 15.957L53.015 15.9574C53.0476 15.9574 53.0721 15.9486 53.0884 15.931C53.106 15.9135 53.1129 15.8877 53.1091 15.8538C53.0978 15.6416 53.0357 15.4877 52.9226 15.3923C52.8096 15.2956 52.6376 15.2472 52.4065 15.2472V15.2185C52.6407 15.2185 52.8207 15.2674 52.9412 15.3703L52.9524 15.3801C53.0664 15.483 53.1266 15.6422 53.1378 15.8519C53.1418 15.8902 53.1344 15.9251 53.1094 15.9506L53.1095 15.9506C53.1094 15.9507 53.1093 15.9507 53.1092 15.9508C53.1091 15.951 53.1089 15.9512 53.1087 15.9514L53.1087 15.9513C53.0852 15.9761 53.0522 15.9861 53.015 15.9861C52.9785 15.9861 52.9461 15.9764 52.922 15.9531C52.8982 15.9302 52.8863 15.8977 52.8827 15.8603L52.8827 15.8597L52.8827 15.8592C52.874 15.7068 52.8326 15.6097 52.7657 15.5582L52.7655 15.558C52.6966 15.5038 52.5791 15.4737 52.4065 15.4737H51.9506C51.8082 15.4737 51.6978 15.4924 51.6175 15.5278L51.6172 15.528C51.5387 15.5615 51.4824 15.6176 51.4476 15.6976C51.4134 15.778 51.3954 15.8891 51.3954 16.0328V16.8899C51.3954 17.0336 51.4141 17.1446 51.4495 17.2249C51.4842 17.3037 51.5405 17.36 51.6194 17.3948C51.6996 17.4302 51.8107 17.4489 51.9544 17.4489V17.4776C51.8178 17.4776 51.7077 17.4611 51.6241 17.428L51.6078 17.4211C51.5277 17.3858 51.4686 17.3295 51.4305 17.2522L51.4232 17.2365C51.3855 17.1511 51.3666 17.0356 51.3666 16.8899ZM52.4065 15.2185V15.2472H51.9506V15.2185H52.4065Z" fill="white"/>
<path d="M48.1259 17.6756C47.8533 17.6756 47.6543 17.6128 47.5287 17.4872C47.4031 17.3616 47.3403 17.1626 47.3403 16.89V16.031C47.3403 15.756 47.4031 15.5563 47.5287 15.432C47.6543 15.3064 47.8521 15.2449 48.1221 15.2474H48.578C48.8505 15.2474 49.0489 15.3102 49.1732 15.4358C49.2988 15.5614 49.3616 15.7604 49.3616 16.0329V16.89C49.3616 17.1626 49.2988 17.3616 49.1732 17.4872C49.0489 17.6128 48.8505 17.6756 48.578 17.6756H48.1259ZM48.1259 17.4778H48.578C48.7224 17.4778 48.8373 17.4589 48.9227 17.4213C49.0081 17.3836 49.0696 17.3221 49.1073 17.2367C49.145 17.1513 49.1638 17.0357 49.1638 16.89V16.0329C49.1638 15.8885 49.145 15.7736 49.1073 15.6882C49.0696 15.6028 49.0081 15.5413 48.9227 15.5036C48.8373 15.4647 48.7224 15.4452 48.578 15.4452H48.1221C47.9777 15.4439 47.8628 15.4621 47.7774 15.4998C47.6932 15.5362 47.6323 15.5978 47.5946 15.6844C47.557 15.7698 47.5381 15.8854 47.5381 16.031V16.89C47.5381 17.0357 47.557 17.1513 47.5946 17.2367C47.6323 17.3221 47.6939 17.3836 47.7792 17.4213C47.8646 17.4589 47.9802 17.4778 48.1259 17.4778Z" fill="white"/>
<path d="M47.3115 16.89V16.031C47.3115 15.7524 47.375 15.5436 47.5084 15.4115C47.6417 15.2782 47.8486 15.216 48.1223 15.2186H48.5779V15.2473H48.122L48.0969 15.2473C47.8397 15.2487 47.6503 15.3103 47.5286 15.4319L47.5171 15.4438C47.3992 15.5688 47.3403 15.7645 47.3403 16.031V16.89L47.3404 16.9153C47.3442 17.1748 47.407 17.3655 47.5286 17.4871C47.6542 17.6127 47.8533 17.6755 48.1258 17.6755H48.5779C48.8504 17.6755 49.0488 17.6127 49.1732 17.4871C49.2948 17.3655 49.3575 17.1748 49.3613 16.9153L49.3615 16.89V16.0328C49.3615 15.7688 49.3026 15.5738 49.1847 15.4477L49.1732 15.4357C49.0527 15.314 48.8627 15.2513 48.6032 15.2475L48.5779 15.2473V15.2186C48.8539 15.2186 49.0614 15.2821 49.1934 15.4154C49.3267 15.5486 49.3902 15.7567 49.3902 16.0328V16.89C49.3902 17.1661 49.3267 17.3742 49.1935 17.5074L49.1934 17.5074C49.0614 17.6407 48.8539 17.7042 48.5779 17.7042H48.1258C47.8496 17.7042 47.6416 17.6407 47.5083 17.5074C47.3751 17.3742 47.3115 17.1661 47.3115 16.89ZM48.5779 17.449V17.4777H48.1258V17.449H48.5779ZM47.538 16.89V16.031C47.538 15.8944 47.5546 15.7843 47.5877 15.7007L47.5946 15.6843C47.6322 15.5977 47.6931 15.5361 47.7773 15.4997C47.8573 15.4644 47.9633 15.4462 48.0953 15.4451H48.5779C48.7223 15.4451 48.8372 15.4646 48.9226 15.5035C49.008 15.5412 49.0695 15.6027 49.1072 15.6881C49.1449 15.7735 49.1637 15.8884 49.1637 16.0328V16.89L49.1635 16.9169C49.1613 17.05 49.1425 17.1565 49.1072 17.2366C49.0695 17.322 49.008 17.3835 48.9226 17.4212C48.8372 17.4588 48.7223 17.4777 48.5779 17.4777V17.449C48.7203 17.449 48.8307 17.4303 48.911 17.3949C48.9899 17.3601 49.0462 17.3038 49.0809 17.225C49.1164 17.1447 49.135 17.0336 49.135 16.89V16.0328C49.135 15.8904 49.1164 15.78 49.0809 15.6997C49.0462 15.6209 48.9899 15.5646 48.911 15.5298L48.9107 15.5296C48.8305 15.4931 48.7202 15.4738 48.5779 15.4738H48.0954C47.9657 15.4749 47.864 15.4928 47.7889 15.526L47.7887 15.5261C47.7115 15.5595 47.6558 15.6156 47.6209 15.6958L47.6209 15.6959C47.5854 15.7762 47.5668 15.8873 47.5668 16.031V16.89C47.5668 17.0336 47.5854 17.1447 47.6209 17.225C47.6556 17.3038 47.7119 17.3601 47.7907 17.3949C47.871 17.4303 47.9821 17.449 48.1258 17.449V17.4777L48.0988 17.4775C47.9658 17.4753 47.8592 17.4565 47.7792 17.4212C47.6991 17.3858 47.64 17.3296 47.6019 17.2523L47.5946 17.2366C47.5592 17.1565 47.5405 17.05 47.5383 16.9169L47.538 16.89Z" fill="white"/>
<path d="M44.4748 17.6755C44.4083 17.6755 44.375 17.6422 44.375 17.5757V15.3472C44.375 15.2806 44.4083 15.2473 44.4748 15.2473C44.5401 15.2473 44.5728 15.2806 44.5728 15.3472V17.4777H45.7181C45.7847 17.4777 45.818 17.5104 45.818 17.5757C45.818 17.6422 45.7847 17.6755 45.7181 17.6755H44.4748Z" fill="white"/>
<path d="M44.5732 15.3471C44.5732 15.2847 44.5445 15.2515 44.4871 15.2476L44.4753 15.2472C44.4087 15.2472 44.3754 15.2805 44.3754 15.3471V17.5756L44.3758 17.5877C44.3794 17.6423 44.4086 17.6714 44.4632 17.675L44.4753 17.6754H45.7185L45.7306 17.675C45.7852 17.6714 45.8143 17.6423 45.818 17.5877L45.8184 17.5756C45.8184 17.5103 45.7851 17.4776 45.7185 17.4776V17.4489C45.7561 17.4489 45.7896 17.4581 45.8135 17.4816C45.8376 17.5052 45.8471 17.5384 45.8471 17.5756C45.8471 17.6133 45.8377 17.6468 45.8137 17.6708C45.7898 17.6947 45.7562 17.7042 45.7185 17.7042H44.4753C44.4375 17.7042 44.404 17.6947 44.3801 17.6708C44.3561 17.6468 44.3467 17.6133 44.3467 17.5756V15.3471C44.3467 15.3094 44.3561 15.2758 44.3801 15.2519C44.404 15.228 44.4375 15.2185 44.4753 15.2185C44.5125 15.2185 44.5456 15.228 44.5692 15.2521C44.5927 15.276 44.6019 15.3095 44.6019 15.3471V17.4489H45.7185V17.4776H44.5732V15.3471Z" fill="white"/>
<path d="M41.2806 17.6756C41.0081 17.6756 40.8091 17.6128 40.6835 17.4872C40.5579 17.3616 40.4951 17.1626 40.4951 16.89V16.031C40.4951 15.756 40.5579 15.5563 40.6835 15.432C40.8091 15.3064 41.0069 15.2449 41.2769 15.2474H41.7327C42.0053 15.2474 42.2037 15.3102 42.328 15.4358C42.4536 15.5614 42.5164 15.7604 42.5164 16.0329V16.89C42.5164 17.1626 42.4536 17.3616 42.328 17.4872C42.2037 17.6128 42.0053 17.6756 41.7327 17.6756H41.2806ZM41.2806 17.4778H41.7327C41.8772 17.4778 41.9921 17.4589 42.0775 17.4213C42.1629 17.3836 42.2244 17.3221 42.2621 17.2367C42.2998 17.1513 42.3186 17.0357 42.3186 16.89V16.0329C42.3186 15.8885 42.2998 15.7736 42.2621 15.6882C42.2244 15.6028 42.1629 15.5413 42.0775 15.5036C41.9921 15.4647 41.8772 15.4452 41.7327 15.4452H41.2769C41.1325 15.4439 41.0175 15.4621 40.9321 15.4998C40.848 15.5362 40.7871 15.5978 40.7494 15.6844C40.7117 15.7698 40.6929 15.8854 40.6929 16.031V16.89C40.6929 17.0357 40.7117 17.1513 40.7494 17.2367C40.7871 17.3221 40.8486 17.3836 40.934 17.4213C41.0194 17.4589 41.135 17.4778 41.2806 17.4778Z" fill="white"/>
<path d="M40.4668 16.89V16.031C40.4668 15.7524 40.5303 15.5436 40.6637 15.4115C40.797 15.2782 41.0039 15.216 41.2775 15.2186H41.7331V15.2473H41.2773L41.2522 15.2473C40.995 15.2487 40.8056 15.3103 40.6839 15.4319L40.6723 15.4438C40.5545 15.5688 40.4955 15.7645 40.4955 16.031V16.89L40.4957 16.9153C40.4995 17.1748 40.5623 17.3655 40.6839 17.4871C40.8095 17.6127 41.0085 17.6755 41.281 17.6755H41.7331C42.0057 17.6755 42.2041 17.6127 42.3284 17.4871C42.4501 17.3655 42.5128 17.1748 42.5166 16.9153L42.5168 16.89V16.0328C42.5168 15.7688 42.4579 15.5738 42.34 15.4477L42.3284 15.4357C42.208 15.314 42.018 15.2513 41.7585 15.2475L41.7331 15.2473V15.2186C42.0092 15.2186 42.2167 15.2821 42.3487 15.4154C42.482 15.5486 42.5455 15.7567 42.5455 16.0328V16.89C42.5455 17.1661 42.482 17.3742 42.3487 17.5074L42.3487 17.5074C42.2167 17.6407 42.0092 17.7042 41.7331 17.7042H41.281C41.0049 17.7042 40.7969 17.6407 40.6636 17.5074C40.5303 17.3742 40.4668 17.1661 40.4668 16.89ZM41.7331 17.449V17.4777H41.281V17.449H41.7331ZM40.6933 16.89V16.031C40.6933 15.8944 40.7099 15.7843 40.743 15.7007L40.7498 15.6843C40.7875 15.5977 40.8484 15.5361 40.9326 15.4997C41.0126 15.4644 41.1186 15.4462 41.2506 15.4451H41.7331C41.8776 15.4451 41.9925 15.4646 42.0779 15.5035C42.1633 15.5412 42.2248 15.6027 42.2625 15.6881C42.3002 15.7735 42.319 15.8884 42.319 16.0328V16.89L42.3188 16.9169C42.3166 17.05 42.2978 17.1565 42.2625 17.2366C42.2248 17.322 42.1633 17.3835 42.0779 17.4212C41.9925 17.4588 41.8776 17.4777 41.7331 17.4777V17.449C41.8755 17.449 41.986 17.4303 42.0663 17.3949C42.1451 17.3601 42.2014 17.3038 42.2362 17.225C42.2716 17.1447 42.2903 17.0336 42.2903 16.89V16.0328C42.2903 15.8904 42.2716 15.78 42.2362 15.6997C42.2014 15.6209 42.1451 15.5646 42.0663 15.5298L42.066 15.5296C41.9858 15.4931 41.8754 15.4738 41.7331 15.4738H41.2507C41.121 15.4749 41.0193 15.4928 40.9441 15.526L40.944 15.5261C40.8667 15.5595 40.811 15.6156 40.7762 15.6958L40.7761 15.6959C40.7407 15.7762 40.722 15.8873 40.722 16.031V16.89C40.722 17.0336 40.7407 17.1447 40.7761 17.225C40.8109 17.3038 40.8672 17.3601 40.946 17.3949C41.0263 17.4303 41.1374 17.449 41.281 17.449V17.4777L41.2541 17.4775C41.121 17.4753 41.0145 17.4565 40.9344 17.4212C40.8544 17.3858 40.7953 17.3296 40.7572 17.2523L40.7498 17.2366C40.7145 17.1565 40.6957 17.05 40.6935 16.9169L40.6933 16.89Z" fill="white"/>
<path d="M36.7878 17.6755C36.7213 17.6755 36.688 17.6422 36.688 17.5757V15.3472C36.688 15.2806 36.7213 15.2473 36.7878 15.2473C36.823 15.2473 36.8569 15.2668 36.8895 15.3057L38.4851 17.3553H38.4399V15.3472C38.4399 15.2806 38.4732 15.2473 38.5397 15.2473C38.605 15.2473 38.6377 15.2806 38.6377 15.3472V17.5757C38.6377 17.6422 38.605 17.6755 38.5397 17.6755C38.5033 17.6755 38.4694 17.656 38.438 17.6171L36.8406 15.5676H36.8858V17.5757C36.8858 17.6422 36.8531 17.6755 36.7878 17.6755Z" fill="white"/>
<path d="M38.6376 15.3471C38.6376 15.2805 38.6049 15.2472 38.5396 15.2472C38.4731 15.2472 38.4398 15.2805 38.4398 15.3471V17.2971L36.8895 15.3056C36.8589 15.2691 36.8271 15.2497 36.7943 15.2475L36.7878 15.2472C36.7212 15.2472 36.6879 15.2805 36.6879 15.3471V17.5756L36.6883 17.5877C36.6919 17.6423 36.7211 17.6714 36.7757 17.675L36.7878 17.6754C36.849 17.6754 36.8815 17.6462 36.8853 17.5877L36.8857 17.5756V15.6254L38.4379 17.617C38.4674 17.6535 38.499 17.6729 38.5329 17.6752L38.5396 17.6754C38.6009 17.6754 38.6334 17.6462 38.6372 17.5877L38.6376 17.5756V15.3471ZM38.6663 17.5756C38.6663 17.6132 38.6571 17.6466 38.6336 17.6706C38.61 17.6946 38.5769 17.7042 38.5396 17.7042C38.4916 17.7042 38.4502 17.6781 38.4156 17.6351L38.4154 17.6349L38.4153 17.6347L36.9144 15.7091V17.5756C36.9144 17.6132 36.9052 17.6466 36.8817 17.6706C36.8581 17.6946 36.825 17.7042 36.7878 17.7042C36.75 17.7042 36.7165 17.6947 36.6926 17.6708C36.6686 17.6468 36.6592 17.6133 36.6592 17.5756V15.3471C36.6592 15.3094 36.6686 15.2758 36.6926 15.2519C36.7165 15.228 36.75 15.2185 36.7878 15.2185C36.8317 15.2185 36.8707 15.2416 36.9047 15.2794L36.9115 15.2872L36.9118 15.2876L36.9121 15.288L38.4111 17.2134V15.3471C38.4111 15.3094 38.4205 15.2758 38.4445 15.2519C38.4684 15.228 38.5019 15.2185 38.5396 15.2185C38.5769 15.2185 38.61 15.228 38.6336 15.2521C38.6571 15.276 38.6663 15.3095 38.6663 15.3471V17.5756Z" fill="white"/>
<path d="M32.8996 17.6755C32.8695 17.6755 32.845 17.6667 32.8262 17.6491C32.8086 17.6303 32.7998 17.6058 32.7998 17.5757V15.3472C32.7998 15.317 32.8086 15.2932 32.8262 15.2756C32.845 15.2567 32.8695 15.2473 32.8996 15.2473C32.9298 15.2473 32.9536 15.2567 32.9712 15.2756C32.9888 15.2932 32.9976 15.317 32.9976 15.3472V16.3456H34.5781V15.3472C34.5781 15.317 34.5869 15.2932 34.6044 15.2756C34.622 15.2567 34.6459 15.2473 34.676 15.2473C34.7062 15.2473 34.73 15.2567 34.7476 15.2756C34.7665 15.2932 34.7759 15.317 34.7759 15.3472V17.5757C34.7759 17.6058 34.7665 17.6303 34.7476 17.6491C34.73 17.6667 34.7062 17.6755 34.676 17.6755C34.6459 17.6755 34.622 17.6667 34.6044 17.6491C34.5869 17.6303 34.5781 17.6058 34.5781 17.5757V16.5434H32.9976V17.5757C32.9976 17.6058 32.9888 17.6303 32.9712 17.6491C32.9536 17.6667 32.9298 17.6755 32.8996 17.6755Z" fill="white"/>
<path d="M32.9975 15.3471C32.9975 15.3169 32.9887 15.2931 32.9711 15.2755C32.9547 15.2578 32.9327 15.2485 32.9052 15.2473L32.8996 15.2472C32.8694 15.2472 32.8449 15.2566 32.8261 15.2755C32.8085 15.2931 32.7997 15.3169 32.7997 15.3471V17.5756L32.8001 17.5866C32.8021 17.6118 32.8107 17.6326 32.8261 17.6491C32.8426 17.6644 32.8634 17.6731 32.8885 17.675L32.8996 17.6754C32.9278 17.6754 32.9506 17.6677 32.9678 17.6523L32.9711 17.6491C32.9865 17.6326 32.9952 17.6118 32.9971 17.5866L32.9975 17.5756V16.5433H34.578V17.5756L34.5784 17.5866C34.5803 17.6118 34.589 17.6326 34.6044 17.6491C34.6197 17.6644 34.6399 17.6731 34.665 17.675L34.6759 17.6754C34.7042 17.6754 34.7269 17.6677 34.7441 17.6523L34.7475 17.6491C34.7652 17.6314 34.7746 17.6088 34.7757 17.5812L34.7758 17.5756V15.3471C34.7758 15.3169 34.7664 15.2931 34.7475 15.2755C34.7311 15.2578 34.709 15.2485 34.6815 15.2473L34.6759 15.2472C34.6458 15.2472 34.6219 15.2566 34.6044 15.2755C34.5868 15.2931 34.578 15.3169 34.578 15.3471V16.3455H32.9975V15.3471ZM34.8045 17.5756C34.8045 17.6123 34.7928 17.6444 34.7679 17.6694C34.7438 17.6934 34.712 17.7042 34.6759 17.7042C34.6399 17.7042 34.6081 17.6934 34.584 17.6694L34.5834 17.6686C34.56 17.6436 34.5493 17.6117 34.5493 17.5756V16.572H33.0262V17.5756C33.0262 17.6117 33.0155 17.6436 32.9921 17.6686L32.9918 17.669L32.9914 17.6694C32.9674 17.6934 32.9356 17.7042 32.8996 17.7042C32.8635 17.7042 32.8315 17.6934 32.8065 17.67L32.8058 17.6694L32.8051 17.6686C32.7817 17.6436 32.771 17.6117 32.771 17.5756V15.3471C32.771 15.311 32.7817 15.2793 32.8058 15.2552C32.8307 15.2302 32.8629 15.2185 32.8996 15.2185C32.9358 15.2185 32.9676 15.23 32.9914 15.2552H32.9914C33.0155 15.2793 33.0262 15.311 33.0262 15.3471V16.3168H34.5493V15.3471C34.5493 15.311 34.56 15.2793 34.584 15.2552C34.6079 15.23 34.6397 15.2185 34.6759 15.2185C34.7122 15.2185 34.744 15.23 34.7678 15.2552C34.793 15.279 34.8045 15.3108 34.8045 15.3471V17.5756Z" fill="white"/>
<path d="M29.8236 17.6755C29.5511 17.6755 29.352 17.6127 29.2265 17.4871C29.1009 17.3615 29.0381 17.1625 29.0381 16.89V16.0328C29.0381 15.7578 29.1002 15.5581 29.2246 15.4338C29.3502 15.3095 29.5486 15.2473 29.8198 15.2473H30.2757C30.5068 15.2473 30.6788 15.2957 30.7919 15.3924C30.9049 15.4878 30.9671 15.6417 30.9784 15.8539C30.9821 15.8878 30.9752 15.9135 30.9576 15.9311C30.9413 15.9487 30.9168 15.9575 30.8842 15.9575C30.8214 15.9575 30.7868 15.9242 30.7806 15.8577C30.7718 15.7019 30.7291 15.5946 30.6525 15.5355C30.5759 15.4753 30.4503 15.4451 30.2757 15.4451H29.8198C29.6754 15.4451 29.5605 15.4639 29.4751 15.5016C29.3897 15.538 29.3282 15.5996 29.2905 15.6862C29.2541 15.7716 29.2359 15.8872 29.2359 16.0328V16.89C29.2359 17.0356 29.2547 17.1512 29.2924 17.2366C29.3301 17.322 29.3916 17.3835 29.477 17.4212C29.5624 17.4589 29.6779 17.4777 29.8236 17.4777H30.2757C30.4503 17.4777 30.5759 17.4482 30.6525 17.3892C30.7291 17.3289 30.7718 17.2209 30.7806 17.0652C30.7868 16.9986 30.8214 16.9653 30.8842 16.9653C30.9168 16.9653 30.9413 16.9747 30.9576 16.9936C30.9752 17.0112 30.9821 17.0363 30.9784 17.0689C30.9671 17.2812 30.9049 17.4356 30.7919 17.5323C30.6788 17.6278 30.5068 17.6755 30.2757 17.6755H29.8236Z" fill="white"/>
<path d="M29.0093 16.8899V16.0328C29.0093 15.7543 29.0721 15.5455 29.2042 15.4134L29.2043 15.4133C29.3375 15.2814 29.5449 15.2185 29.8198 15.2185V15.2472L29.7945 15.2474C29.5362 15.2512 29.3461 15.3133 29.2245 15.4337C29.1002 15.5581 29.038 15.7577 29.038 16.0328V16.8899C29.038 17.1624 29.1008 17.3615 29.2264 17.487C29.348 17.6087 29.5386 17.6714 29.7982 17.6752L29.8235 17.6754H30.2756L30.2971 17.6753C30.5103 17.6725 30.6716 17.6278 30.781 17.5411L30.7918 17.5323C30.9048 17.4356 30.967 17.2811 30.9783 17.0688C30.982 17.0362 30.9751 17.0111 30.9575 16.9935C30.9422 16.9758 30.9198 16.9664 30.8901 16.9653L30.8841 16.9652C30.8213 16.9652 30.7868 16.9985 30.7805 17.0651L30.7796 17.0795C30.769 17.2275 30.7266 17.3307 30.6524 17.3891C30.5758 17.4481 30.4502 17.4776 30.2756 17.4776V17.4489C30.4483 17.4489 30.566 17.4194 30.6349 17.3663C30.7018 17.3135 30.7432 17.2156 30.7518 17.0635L30.7518 17.0629L30.7519 17.0624C30.7554 17.0249 30.7673 16.9925 30.7912 16.9695C30.8153 16.9463 30.8476 16.9365 30.8841 16.9365C30.9216 16.9365 30.9546 16.9473 30.9779 16.9732C31.0031 16.9984 31.011 17.0327 31.007 17.0704L31.0057 17.0905C30.9914 17.2972 30.9279 17.4537 30.8105 17.5541L30.8103 17.5542C30.6899 17.6559 30.5099 17.7042 30.2756 17.7042H29.8235C29.5474 17.7042 29.3393 17.6406 29.2061 17.5074C29.0728 17.3741 29.0093 17.166 29.0093 16.8899ZM30.2756 17.4489V17.4776H29.8235V17.4489H30.2756ZM29.2358 16.8899V16.0328C29.2358 15.8871 29.254 15.7715 29.2904 15.6861C29.3258 15.6049 29.382 15.5458 29.4593 15.5087L29.475 15.5015C29.5551 15.4662 29.6611 15.4474 29.793 15.4452L29.8198 15.445H30.2756C30.4502 15.445 30.5758 15.4752 30.6524 15.5355C30.729 15.5945 30.7717 15.7019 30.7805 15.8576C30.7864 15.92 30.8171 15.9531 30.8727 15.957L30.8841 15.9574C30.9167 15.9574 30.9412 15.9486 30.9575 15.931C30.9751 15.9135 30.982 15.8877 30.9783 15.8538C30.967 15.6416 30.9048 15.4877 30.7918 15.3923C30.6787 15.2956 30.5067 15.2472 30.2756 15.2472V15.2185C30.5098 15.2185 30.6899 15.2674 30.8103 15.3703L30.8215 15.3801C30.9355 15.483 30.9957 15.6422 31.0069 15.8519C31.011 15.8902 31.0035 15.9251 30.9786 15.9506L30.9786 15.9506C30.9785 15.9507 30.9785 15.9507 30.9784 15.9508C30.9782 15.951 30.978 15.9512 30.9779 15.9514L30.9778 15.9513C30.9544 15.9761 30.9214 15.9861 30.8841 15.9861C30.8476 15.9861 30.8153 15.9764 30.7912 15.9531C30.7673 15.9302 30.7554 15.8977 30.7519 15.8603L30.7518 15.8597L30.7518 15.8592C30.7432 15.7068 30.7017 15.6097 30.6349 15.5582L30.6346 15.558C30.5657 15.5038 30.4483 15.4737 30.2756 15.4737H29.8198C29.6774 15.4737 29.5669 15.4924 29.4866 15.5278L29.4863 15.528C29.4078 15.5615 29.3516 15.6176 29.3168 15.6976C29.2826 15.778 29.2645 15.8891 29.2645 16.0328V16.8899C29.2645 17.0336 29.2832 17.1446 29.3186 17.2249C29.3534 17.3037 29.4097 17.36 29.4885 17.3948C29.5688 17.4302 29.6798 17.4489 29.8235 17.4489V17.4776C29.687 17.4776 29.5769 17.4611 29.4933 17.428L29.4769 17.4211C29.3969 17.3858 29.3378 17.3295 29.2997 17.2522L29.2923 17.2365C29.2546 17.1511 29.2358 17.0356 29.2358 16.8899ZM30.2756 15.2185V15.2472H29.8198V15.2185H30.2756Z" fill="white"/>
<path d="M25.9451 17.6755C25.8785 17.6755 25.8452 17.6422 25.8452 17.5757V15.3472C25.8452 15.2806 25.8785 15.2473 25.9451 15.2473H27.356C27.4225 15.2473 27.4558 15.2806 27.4558 15.3472C27.4558 15.4125 27.4225 15.4451 27.356 15.4451H26.043V16.3474H26.9114C26.978 16.3474 27.0113 16.3801 27.0113 16.4454C27.0113 16.512 26.978 16.5452 26.9114 16.5452H26.043V17.4777H27.356C27.4225 17.4777 27.4558 17.5104 27.4558 17.5757C27.4558 17.6422 27.4225 17.6755 27.356 17.6755H25.9451Z" fill="white"/>
<path d="M25.8164 17.5756V15.3471C25.8164 15.3094 25.8259 15.2758 25.8498 15.2519C25.8737 15.228 25.9073 15.2185 25.945 15.2185V15.2472L25.9329 15.2476C25.8744 15.2515 25.8451 15.2847 25.8451 15.3471V17.5756L25.8455 17.5877C25.8492 17.6423 25.8783 17.6714 25.9329 17.675L25.945 17.6754H27.3559L27.368 17.675C27.4226 17.6714 27.4517 17.6423 27.4553 17.5877L27.4557 17.5756C27.4557 17.5144 27.4265 17.4818 27.368 17.478L27.3559 17.4776V17.4489C27.3935 17.4489 27.427 17.4581 27.4509 17.4816C27.475 17.5052 27.4845 17.5384 27.4845 17.5756C27.4845 17.6133 27.475 17.6468 27.4511 17.6708C27.4272 17.6947 27.3936 17.7042 27.3559 17.7042H25.945C25.9073 17.7042 25.8737 17.6947 25.8498 17.6708C25.8259 17.6468 25.8164 17.6133 25.8164 17.5756ZM27.0112 16.4453C27.0112 16.3841 26.9819 16.3516 26.9234 16.3478L26.9113 16.3474V16.3186C26.9489 16.3186 26.9824 16.3279 27.0063 16.3513C27.0304 16.3749 27.0399 16.4081 27.0399 16.4453C27.0399 16.483 27.0305 16.5166 27.0065 16.5405C26.9826 16.5644 26.949 16.5739 26.9113 16.5739H26.0716V17.4489H27.3559V17.4776H26.0429V16.5451H26.9113L26.9234 16.5448C26.978 16.5411 27.0072 16.512 27.0108 16.4574L27.0112 16.4453ZM27.4557 15.3471C27.4557 15.2847 27.4265 15.2515 27.368 15.2476L27.3559 15.2472V15.2185C27.3936 15.2185 27.4272 15.228 27.4511 15.2519C27.475 15.2758 27.4845 15.3094 27.4845 15.3471C27.4845 15.3843 27.475 15.4174 27.4509 15.441C27.427 15.4645 27.3935 15.4737 27.3559 15.4737H26.0716V16.3186H26.9113V16.3474H26.0429V15.445H27.3559L27.368 15.4447C27.4226 15.4411 27.4517 15.4125 27.4553 15.3589L27.4557 15.3471ZM27.3559 15.2185V15.2472H25.945V15.2185H27.3559Z" fill="white"/>
<path d="M23.2195 17.6776C23.1894 17.6776 23.1649 17.6688 23.146 17.6512C23.1285 17.6336 23.1197 17.6097 23.1197 17.5796V15.4434H22.3191C22.2889 15.4434 22.2644 15.4346 22.2456 15.417C22.228 15.3994 22.2192 15.3756 22.2192 15.3454C22.2192 15.3153 22.228 15.2914 22.2456 15.2739C22.2644 15.255 22.2889 15.2456 22.3191 15.2456H24.12C24.1501 15.2456 24.174 15.255 24.1915 15.2739C24.2091 15.2914 24.2179 15.3153 24.2179 15.3454C24.2179 15.3756 24.2091 15.3994 24.1915 15.417C24.174 15.4346 24.1501 15.4434 24.12 15.4434H23.3175V17.5796C23.3175 17.6085 23.3081 17.6324 23.2892 17.6512C23.2716 17.6688 23.2484 17.6776 23.2195 17.6776Z" fill="white"/>
<path d="M23.0909 17.5798V15.4723H22.319C22.2829 15.4723 22.251 15.4616 22.2259 15.4382L22.2256 15.4379L22.2252 15.4375C22.2011 15.4134 22.1904 15.3816 22.1904 15.3456C22.1904 15.3096 22.2011 15.2778 22.2252 15.2537C22.2502 15.2288 22.2823 15.217 22.319 15.217V15.2458L22.3134 15.2459C22.2858 15.247 22.2632 15.2564 22.2455 15.274C22.2279 15.2916 22.2192 15.3155 22.2192 15.3456L22.2196 15.3566C22.2215 15.3816 22.2301 15.4018 22.2455 15.4172C22.262 15.4326 22.2828 15.4412 22.3079 15.4432L22.319 15.4436H23.1196V17.5798C23.1196 17.6099 23.1284 17.6338 23.146 17.6514C23.1624 17.6667 23.1833 17.6754 23.2084 17.6773L23.2194 17.6777C23.2465 17.6777 23.2686 17.67 23.2858 17.6546L23.2891 17.6514C23.308 17.6325 23.3174 17.6086 23.3174 17.5798V15.4436H24.1199L24.1309 15.4432C24.1559 15.4412 24.1761 15.4326 24.1914 15.4172C24.2068 15.4018 24.2155 15.3816 24.2174 15.3566L24.2178 15.3456C24.2178 15.3155 24.209 15.2916 24.1914 15.274C24.175 15.2564 24.153 15.247 24.1255 15.2459L24.1199 15.2458V15.217C24.1562 15.217 24.1879 15.2286 24.2118 15.2537C24.2358 15.2778 24.2466 15.3096 24.2466 15.3456C24.2466 15.3816 24.2358 15.4134 24.2118 15.4375C24.1877 15.4616 24.1559 15.4723 24.1199 15.4723H23.3461V17.5798C23.3461 17.6156 23.3341 17.647 23.3094 17.6717C23.2856 17.6955 23.2546 17.7065 23.2194 17.7065C23.1833 17.7065 23.1514 17.6957 23.1264 17.6724L23.1257 17.6717C23.1016 17.6476 23.0909 17.6158 23.0909 17.5798ZM24.1199 15.217V15.2458H22.319V15.217H24.1199Z" fill="white"/>
<path d="M10.5136 0.0895996C10.5136 0.0899462 10.9059 8.25428 1.72775 10.5652V15.1816L8.25993 19.125L15.0919 15.1816V1.85279H13.0289C13.0289 1.85279 12.6427 8.63793 5.8486 11.8826C5.84909 11.8663 5.84935 11.85 5.84935 11.8336C5.84935 11.2732 5.55911 10.7805 5.12074 10.4978C7.63868 9.26249 11.2819 6.47894 11.601 0.0895996H16.7433V16.1572L8.25993 20.9999L0 16.1572V8.9873C0 8.9873 7.33883 8.9873 8.74773 1.85279H7.58409C5.949 7.89723 0 7.89723 0 7.89723V3.6187C0.000454934 3.61869 2.14313 3.54492 3.07092 1.87344C3.32869 2.26485 3.77205 2.52318 4.27576 2.52318C4.41323 2.52318 4.5462 2.50393 4.67213 2.468C4.23142 3.3802 3.37501 4.3286 1.72775 4.85866V5.98416C6.42863 4.67608 6.19426 0.0895996 6.19426 0.0895996H10.5136Z" fill="white"/>
<path d="M4.62853 11.8293C4.62853 11.6241 4.46218 11.4578 4.25702 11.4578C4.05187 11.4578 3.88555 11.6241 3.88555 11.8293C3.88555 12.0345 4.05186 12.2008 4.25702 12.2008V12.8676L4.23025 12.8673C3.6692 12.8531 3.21875 12.3938 3.21875 11.8293C3.21876 11.2559 3.6836 10.791 4.25702 10.791C4.83045 10.791 5.29533 11.2559 5.29533 11.8293L5.29499 11.8561C5.28077 12.4172 4.82149 12.8676 4.25702 12.8676V12.2008C4.46219 12.2008 4.62853 12.0345 4.62853 11.8293Z" fill="white"/>
<path d="M4.62853 1.03828C4.62853 0.83312 4.46218 0.666805 4.25702 0.666805C4.05187 0.666811 3.88555 0.833124 3.88555 1.03828C3.88555 1.24345 4.05186 1.40979 4.25702 1.4098V2.0766L4.23025 2.07626C3.6692 2.06205 3.21875 1.60276 3.21875 1.03828C3.21876 0.464857 3.6836 5.46536e-06 4.25702 0C4.83045 0 5.29533 0.464854 5.29533 1.03828L5.29499 1.0651C5.28077 1.62614 4.82149 2.0766 4.25702 2.0766V1.4098C4.46219 1.4098 4.62853 1.24345 4.62853 1.03828Z" fill="white"/>
</svg>
