<svg width="91" height="20" viewBox="0 0 91 20" fill="none" xmlns="http://www.w3.org/2000/svg">
<path d="M6.40106 8.83964L14.9025 15.0933L13.0937 16.4764L4.23047 9.922V4.27734H6.40106V8.83964Z" fill="#1CA3BB"/>
<path d="M17.0108 0H19.0608C19.0608 1.6837 19.1211 5.86888 19.1211 8.659C19.123 11.2447 17.8568 12.8682 16.7093 13.7702L12.7299 10.8238V2.10462H10.5593V9.14006L8.50935 7.63676V0H14.8402V9.92177C14.9809 10.002 15.4673 10.3307 16.2873 11.0042C17.0108 10.042 17.0108 8.8394 17.0108 8.05768V0Z" fill="white"/>
<path d="M6.40174 2.22475H2.85127V2.22488H2.12087C2.14097 3.06673 2.16911 5.36377 2.12087 7.81715C2.06767 10.5231 2.90469 11.4852 3.62822 12.0264L11.2856 17.7991L9.47674 19.122C8.71301 18.5206 6.47409 16.8009 3.62822 14.7323C0.782339 12.6638 -0.110011 11.2447 0.0105762 7.81715V0H6.40174V2.22475Z" fill="white"/>
<path d="M90.35 17.2434C90.2781 17.2434 90.2422 17.2068 90.2422 17.1337V17.063C90.2422 16.9924 90.2781 16.957 90.35 16.957H90.4188C90.4895 16.957 90.5248 16.9924 90.5248 17.063V17.1337C90.5248 17.2068 90.4895 17.2434 90.4188 17.2434H90.35Z" fill="#1CA3BB"/>
<path d="M90.2148 17.1347V17.064C90.2148 17.0242 90.225 16.9891 90.2503 16.9643C90.2755 16.9396 90.3109 16.9297 90.3511 16.9297V16.958L90.3444 16.9582C90.2769 16.9603 90.2432 16.9956 90.2432 17.064V17.1347L90.2433 17.1415C90.2454 17.2079 90.2791 17.2422 90.3444 17.2443L90.3511 17.2444H90.4199L90.4264 17.2443C90.4906 17.2422 90.5237 17.2079 90.5258 17.1415L90.5258 17.1347V17.064C90.5258 16.9956 90.4927 16.9603 90.4264 16.9582L90.4199 16.958V16.9297C90.4596 16.9297 90.4946 16.9396 90.5194 16.9645C90.5443 16.9894 90.5542 17.0243 90.5542 17.064V17.1347C90.5542 17.1754 90.5444 17.2112 90.5198 17.2367C90.4949 17.2624 90.4598 17.2728 90.4199 17.2728H90.3511C90.3106 17.2728 90.2751 17.2625 90.2499 17.2369C90.2249 17.2114 90.2148 17.1755 90.2148 17.1347ZM90.4199 16.9297V16.958H90.3511V16.9297H90.4199Z" fill="#1CA3BB"/>
<path d="M86.7021 17.2407C86.6364 17.2407 86.6035 17.2079 86.6035 17.1422V14.9423C86.6035 14.8766 86.6364 14.8438 86.7021 14.8438H87.5984C87.9071 14.8438 88.1315 14.9144 88.2715 15.0557C88.4129 15.1971 88.4835 15.4221 88.4835 15.7308V16.3537C88.4835 16.6624 88.4129 16.8874 88.2715 17.0288C88.1315 17.1701 87.9071 17.2407 87.5984 17.2407H86.7021ZM86.7988 17.0455H87.5984C87.767 17.0455 87.9015 17.0232 88.0019 16.9785C88.1036 16.9339 88.1767 16.8614 88.2213 16.761C88.266 16.6593 88.2883 16.5236 88.2883 16.3537V15.7308C88.2883 15.5622 88.266 15.4277 88.2213 15.3272C88.1767 15.2256 88.1036 15.1524 88.0019 15.1078C87.9015 15.0619 87.767 15.039 87.5984 15.039H86.7988V17.0455Z" fill="#1CA3BB"/>
<path d="M88.4826 16.3548V15.7318C88.4826 15.4231 88.4119 15.1981 88.2706 15.0568C88.1305 14.9154 87.9061 14.8448 87.5974 14.8448V14.8164C87.9096 14.8164 88.1429 14.8877 88.2907 15.0367L88.3044 15.0509C88.444 15.2003 88.5109 15.4293 88.5109 15.7318V16.3548C88.5109 16.6669 88.4396 16.9008 88.2907 17.0497C88.143 17.1987 87.9096 17.2701 87.5974 17.2701H86.7011C86.6639 17.2701 86.6308 17.2608 86.6072 17.2372C86.5836 17.2136 86.5742 17.1804 86.5742 17.1432V14.9433C86.5742 14.9061 86.5836 14.873 86.6072 14.8494C86.6308 14.8257 86.6639 14.8164 86.7011 14.8164V14.8448L86.6892 14.8452C86.6315 14.849 86.6026 14.8817 86.6026 14.9433V17.1432L86.603 17.1551C86.6066 17.209 86.6353 17.2378 86.6892 17.2414L86.7011 17.2418H87.5974L87.6261 17.2415C87.9201 17.2373 88.1349 17.1667 88.2706 17.0298C88.4075 16.8929 88.4781 16.6774 88.4824 16.3834L88.4826 16.3548ZM88.259 16.3548V15.7318C88.259 15.5652 88.2369 15.4351 88.1945 15.3398L88.1944 15.3397C88.1527 15.2445 88.0847 15.1766 87.9896 15.1348L87.9894 15.1347L87.9892 15.1346C87.8939 15.0911 87.7639 15.0684 87.5974 15.0684H86.8262V17.0181H87.5974V17.0465H86.7978V15.04H87.5974C87.766 15.04 87.9005 15.063 88.001 15.1088C88.1026 15.1535 88.1758 15.2266 88.2204 15.3282C88.265 15.4287 88.2873 15.5632 88.2873 15.7318V16.3548L88.2871 16.3862C88.2845 16.5414 88.2622 16.6667 88.2204 16.762C88.1758 16.8624 88.1026 16.9349 88.001 16.9796L87.9817 16.9877C87.8836 17.0269 87.7555 17.0465 87.5974 17.0465V17.0181C87.764 17.0181 87.8941 16.996 87.9894 16.9536L87.9896 16.9536C88.0848 16.9118 88.1528 16.8444 88.1945 16.7505C88.2369 16.6538 88.259 16.5225 88.259 16.3548ZM87.5974 14.8164V14.8448H86.7011V14.8164H87.5974Z" fill="#1CA3BB"/>
<path d="M84.0109 17.2445C83.9811 17.2445 83.9569 17.2358 83.9383 17.2184C83.921 17.2011 83.9123 17.1775 83.9123 17.1478V15.039H83.122C83.0922 15.039 83.0681 15.0303 83.0495 15.013C83.0321 14.9956 83.0234 14.9721 83.0234 14.9423C83.0234 14.9126 83.0321 14.889 83.0495 14.8716C83.0681 14.853 83.0922 14.8438 83.122 14.8438H84.8997C84.9295 14.8438 84.953 14.853 84.9704 14.8716C84.9878 14.889 84.9964 14.9126 84.9964 14.9423C84.9964 14.9721 84.9878 14.9956 84.9704 15.013C84.953 15.0303 84.9295 15.039 84.8997 15.039H84.1076V17.1478C84.1076 17.1763 84.0983 17.1998 84.0797 17.2184C84.0623 17.2358 84.0394 17.2445 84.0109 17.2445Z" fill="#1CA3BB"/>
<path d="M83.885 17.1488V15.0684H83.123C83.0874 15.0684 83.0559 15.0578 83.0311 15.0347L83.0308 15.0344L83.0304 15.034C83.0067 15.0103 82.9961 14.9789 82.9961 14.9433C82.9961 14.9078 83.0067 14.8764 83.0304 14.8526C83.0551 14.828 83.0868 14.8164 83.123 14.8164V14.8448L83.1175 14.8449C83.0903 14.846 83.0679 14.8552 83.0505 14.8727C83.0331 14.89 83.0245 14.9136 83.0245 14.9433L83.0249 14.9542C83.0268 14.9789 83.0353 14.9988 83.0505 15.014C83.0668 15.0292 83.0873 15.0377 83.1121 15.0396L83.123 15.04H83.9133V17.1488C83.9133 17.1785 83.922 17.2021 83.9394 17.2194C83.9556 17.2346 83.9762 17.2432 84.001 17.2451L84.0119 17.2455C84.0386 17.2455 84.0604 17.2379 84.0774 17.2226L84.0807 17.2194C84.0981 17.202 84.1074 17.1802 84.1085 17.1541L84.1086 17.1488V15.04H84.9008L84.9116 15.0396C84.9345 15.0379 84.9533 15.0304 84.9681 15.0171L84.9714 15.014C84.9866 14.9988 84.9951 14.9789 84.997 14.9542L84.9975 14.9433C84.9975 14.9136 84.9888 14.89 84.9714 14.8727C84.9552 14.8552 84.9334 14.846 84.9063 14.8449L84.9008 14.8448V14.8164C84.9366 14.8164 84.9679 14.8278 84.9914 14.8526C85.0152 14.8764 85.0258 14.9078 85.0258 14.9433C85.0258 14.9789 85.0152 15.0103 84.9915 15.034C84.9677 15.0578 84.9363 15.0684 84.9008 15.0684H84.1369V17.1488C84.1369 17.1841 84.1251 17.2151 84.1007 17.2395C84.0772 17.263 84.0466 17.2738 84.0119 17.2738C83.9763 17.2738 83.9447 17.2633 83.92 17.2402L83.9197 17.2399L83.9193 17.2395C83.8955 17.2157 83.885 17.1843 83.885 17.1488ZM84.9008 14.8164V14.8448H83.123V14.8164H84.9008Z" fill="#1CA3BB"/>
<path d="M80.6845 17.2407C80.6188 17.2407 80.5859 17.2079 80.5859 17.1422V14.9423C80.5859 14.8766 80.6188 14.8438 80.6845 14.8438C80.749 14.8438 80.7812 14.8766 80.7812 14.9423V17.0455H81.9118C81.9775 17.0455 82.0104 17.0777 82.0104 17.1422C82.0104 17.2079 81.9775 17.2407 81.9118 17.2407H80.6845Z" fill="#1CA3BB"/>
<path d="M80.7822 14.9433C80.7822 14.8817 80.7539 14.849 80.6972 14.8452L80.6855 14.8448C80.6198 14.8448 80.587 14.8776 80.587 14.9433V17.1432L80.5873 17.1551C80.5909 17.209 80.6197 17.2378 80.6736 17.2414L80.6855 17.2418H81.9128L81.9248 17.2414C81.9787 17.2378 82.0074 17.209 82.011 17.1551L82.0114 17.1432C82.0114 17.0828 81.9825 17.0507 81.9248 17.0469L81.9128 17.0465V17.0181C81.9499 17.0181 81.983 17.0272 82.0066 17.0504C82.0303 17.0737 82.0397 17.1065 82.0397 17.1432C82.0397 17.1804 82.0304 17.2136 82.0068 17.2372C81.9832 17.2608 81.9501 17.2701 81.9128 17.2701H80.6855C80.6483 17.2701 80.6152 17.2608 80.5915 17.2372C80.5679 17.2136 80.5586 17.1804 80.5586 17.1432V14.9433C80.5586 14.9061 80.5679 14.873 80.5915 14.8494C80.6152 14.8257 80.6483 14.8164 80.6855 14.8164C80.7223 14.8164 80.755 14.8258 80.7783 14.8496C80.8015 14.8732 80.8106 14.9062 80.8106 14.9433V17.0181H81.9128V17.0465H80.7822V14.9433Z" fill="#1CA3BB"/>
<path d="M76.479 17.2434C76.407 17.2434 76.3711 17.2068 76.3711 17.1337V17.063C76.3711 16.9924 76.407 16.957 76.479 16.957H76.5478C76.6184 16.957 76.6538 16.9924 76.6538 17.063V17.1337C76.6538 17.2068 76.6184 17.2434 76.5478 17.2434H76.479Z" fill="#1CA3BB"/>
<path d="M76.3438 17.1347V17.064C76.3438 17.0242 76.3539 16.9891 76.3792 16.9643C76.4044 16.9396 76.4398 16.9297 76.48 16.9297V16.958L76.4733 16.9582C76.4059 16.9603 76.3721 16.9956 76.3721 17.064V17.1347L76.3722 17.1415C76.3743 17.2079 76.408 17.2422 76.4733 17.2443L76.48 17.2444H76.5488L76.5553 17.2443C76.6195 17.2422 76.6526 17.2079 76.6547 17.1415L76.6548 17.1347V17.064C76.6548 16.9956 76.6216 16.9603 76.5553 16.9582L76.5488 16.958V16.9297C76.5885 16.9297 76.6235 16.9396 76.6483 16.9645C76.6732 16.9894 76.6831 17.0243 76.6831 17.064V17.1347C76.6831 17.1754 76.6733 17.2112 76.6487 17.2367C76.6238 17.2624 76.5887 17.2728 76.5488 17.2728H76.48C76.4395 17.2728 76.404 17.2625 76.3788 17.2369C76.3538 17.2114 76.3438 17.1755 76.3438 17.1347ZM76.5488 16.9297V16.958H76.48V16.9297H76.5488Z" fill="#1CA3BB"/>
<path d="M74.2628 17.2445C74.2331 17.2445 74.2089 17.2358 74.1903 17.2184C74.1729 17.2011 74.1643 17.1775 74.1643 17.1478V15.039H73.3739C73.3442 15.039 73.32 15.0303 73.3014 15.013C73.2841 14.9956 73.2754 14.9721 73.2754 14.9423C73.2754 14.9126 73.2841 14.889 73.3014 14.8716C73.32 14.853 73.3442 14.8438 73.3739 14.8438H75.1517C75.1814 14.8438 75.205 14.853 75.2223 14.8716C75.2397 14.889 75.2484 14.9126 75.2484 14.9423C75.2484 14.9721 75.2397 14.9956 75.2223 15.013C75.205 15.0303 75.1814 15.039 75.1517 15.039H74.3595V17.1478C74.3595 17.1763 74.3502 17.1998 74.3316 17.2184C74.3143 17.2358 74.2913 17.2445 74.2628 17.2445Z" fill="#1CA3BB"/>
<path d="M74.1369 17.1488V15.0684H73.375C73.3393 15.0684 73.3078 15.0578 73.2831 15.0347L73.2827 15.0344L73.2824 15.034C73.2586 15.0103 73.248 14.9789 73.248 14.9433C73.248 14.9078 73.2586 14.8764 73.2824 14.8526C73.307 14.828 73.3388 14.8164 73.375 14.8164V14.8448L73.3695 14.8449C73.3422 14.846 73.3199 14.8552 73.3024 14.8727L73.2993 14.876C73.284 14.893 73.2764 14.9154 73.2764 14.9433L73.2768 14.9542C73.2787 14.9789 73.2873 14.9988 73.3024 15.014C73.3187 15.0292 73.3392 15.0377 73.3641 15.0396L73.375 15.04H74.1653V17.1488C74.1653 17.1785 74.174 17.2021 74.1913 17.2194C74.2076 17.2346 74.2281 17.2432 74.2529 17.2451L74.2638 17.2455C74.2906 17.2455 74.3124 17.2379 74.3293 17.2226L74.3326 17.2194C74.3512 17.2009 74.3605 17.1773 74.3605 17.1488V15.04H75.1527L75.1636 15.0396C75.1882 15.0377 75.2082 15.0292 75.2234 15.014C75.2385 14.9988 75.2471 14.9789 75.249 14.9542L75.2494 14.9433C75.2494 14.9136 75.2407 14.89 75.2234 14.8727C75.2071 14.8552 75.1854 14.846 75.1582 14.8449L75.1527 14.8448V14.8164C75.1885 14.8164 75.2198 14.8278 75.2434 14.8526C75.2672 14.8764 75.2778 14.9078 75.2778 14.9433C75.2778 14.9789 75.2672 15.0103 75.2434 15.034C75.2197 15.0578 75.1883 15.0684 75.1527 15.0684H74.3889V17.1488C74.3889 17.1841 74.3771 17.2151 74.3527 17.2395C74.3291 17.263 74.2986 17.2738 74.2638 17.2738C74.2282 17.2738 74.1967 17.2633 74.1719 17.2402L74.1713 17.2395C74.1475 17.2157 74.1369 17.1843 74.1369 17.1488ZM75.1527 14.8164V14.8448H73.375V14.8164H75.1527Z" fill="#1CA3BB"/>
<path d="M70.8359 17.2428C70.7937 17.2428 70.7634 17.2205 70.7448 17.1758L69.7797 14.9853C69.7635 14.9493 69.7635 14.9196 69.7797 14.896C69.797 14.8725 69.8206 14.8576 69.8503 14.8514C69.9012 14.839 69.9365 14.8576 69.9563 14.9072L70.8861 17.0159H70.8173L71.7415 14.9072C71.7613 14.8576 71.7973 14.839 71.8494 14.8514C71.8816 14.8576 71.9051 14.8725 71.92 14.896C71.9349 14.9196 71.9349 14.9493 71.92 14.9853L70.9512 17.1758C70.9326 17.2205 70.901 17.2428 70.8564 17.2428H70.8359Z" fill="#1CA3BB"/>
<path d="M71.7713 14.8319C71.797 14.8185 71.8265 14.8175 71.8569 14.8248L71.8569 14.8248C71.8948 14.8324 71.9254 14.8508 71.945 14.8819C71.9666 14.916 71.9641 14.9563 71.9472 14.9971L71.9471 14.9974L71.947 14.9977L70.9783 17.1877L70.9784 17.1878C70.9675 17.2138 70.952 17.2353 70.9309 17.2502C70.9096 17.2653 70.8846 17.2722 70.8573 17.2722H70.8369C70.8105 17.2722 70.7863 17.2651 70.7657 17.2499C70.7455 17.235 70.7305 17.2138 70.7198 17.1883V17.1883L69.7547 14.9977L69.7547 14.9977C69.7364 14.9566 69.7336 14.9156 69.7573 14.881L69.7575 14.8806L69.7578 14.8802C69.7793 14.851 69.8087 14.8325 69.8446 14.8248C69.8746 14.8175 69.9037 14.8185 69.9292 14.8319C69.9543 14.8452 69.9717 14.8682 69.9833 14.8967L70.8525 16.8682L71.7165 14.8968C71.7282 14.8681 71.7458 14.845 71.7713 14.8319ZM71.8504 14.8524C71.7983 14.84 71.7623 14.8586 71.7425 14.9082L70.8526 16.9387L69.9573 14.9082C69.9375 14.8586 69.9022 14.84 69.8513 14.8524L69.8458 14.8537C69.8187 14.8605 69.7969 14.8749 69.7807 14.897L69.7778 14.9015C69.7646 14.9243 69.7655 14.9526 69.7807 14.9863L70.7458 17.1769C70.7632 17.2187 70.791 17.2409 70.8291 17.2435L70.8369 17.2438H70.8573L70.8656 17.2435C70.9059 17.2409 70.9348 17.2187 70.9522 17.1769L71.921 14.9863C71.935 14.9526 71.9358 14.9243 71.9236 14.9015L71.921 14.897C71.9061 14.8735 71.8826 14.8586 71.8504 14.8524Z" fill="#1CA3BB"/>
<path d="M66.8896 17.2407C66.8239 17.2407 66.791 17.2079 66.791 17.1422V14.9423C66.791 14.8766 66.8239 14.8438 66.8896 14.8438H67.7598C67.9718 14.8438 68.1318 14.8983 68.2396 15.0074C68.3487 15.1165 68.4033 15.277 68.4033 15.489V15.6006C68.4033 15.8114 68.3487 15.9713 68.2396 16.0804C68.1318 16.1895 67.9718 16.244 67.7598 16.244H66.9863V17.1422C66.9863 17.2079 66.954 17.2407 66.8896 17.2407ZM66.9863 16.0488H67.7598C67.916 16.0488 68.0295 16.0134 68.1001 15.9428C68.172 15.8709 68.208 15.7568 68.208 15.6006V15.489C68.208 15.3316 68.172 15.2175 68.1001 15.1469C68.0295 15.075 67.916 15.039 67.7598 15.039H66.9863V16.0488Z" fill="#1CA3BB"/>
<path d="M66.7637 17.1432V14.9433C66.7637 14.9061 66.773 14.873 66.7966 14.8494C66.8202 14.8257 66.8534 14.8164 66.8906 14.8164V14.8448L66.8787 14.8452C66.8209 14.849 66.792 14.8817 66.792 14.9433V17.1432L66.7924 17.1551C66.796 17.209 66.8248 17.2378 66.8787 17.2414L66.8906 17.2418C66.951 17.2418 66.9831 17.2129 66.9869 17.1551L66.9873 17.1432V16.245H67.7609L67.7806 16.2449C67.9828 16.2416 68.1361 16.1871 68.2406 16.0814C68.3463 15.9757 68.4008 15.8223 68.4041 15.6212L68.4043 15.6016V15.49C68.4043 15.278 68.3497 15.1175 68.2406 15.0084C68.1328 14.8993 67.9728 14.8448 67.7609 14.8448V14.8164C67.9774 14.8164 68.1457 14.8722 68.2607 14.9884L68.2714 14.9994C68.3803 15.1151 68.4326 15.2802 68.4326 15.49V15.6016C68.4326 15.817 68.3768 15.9852 68.2608 16.1013L68.2608 16.1013C68.1458 16.2176 67.9775 16.2734 67.7609 16.2734H67.0156V17.1432C67.0156 17.1803 67.0065 17.2133 66.9833 17.237C66.9601 17.2607 66.9273 17.2701 66.8906 17.2701C66.8534 17.2701 66.8202 17.2608 66.7966 17.2372C66.773 17.2136 66.7637 17.1804 66.7637 17.1432ZM68.1807 15.6016V15.49C68.1807 15.336 68.1454 15.2311 68.0813 15.1681L68.0809 15.1678C68.0179 15.1036 67.9135 15.0684 67.7609 15.0684H67.0156V16.0214H67.7609V16.0498H66.9873V15.04H67.7609C67.9171 15.04 68.0305 15.076 68.1012 15.1479C68.1731 15.2185 68.209 15.3326 68.209 15.49V15.6016L68.2089 15.6161C68.2067 15.7649 68.1708 15.8741 68.1012 15.9438L68.0944 15.9503C68.0234 16.0166 67.9122 16.0498 67.7609 16.0498V16.0214C67.9136 16.0214 68.0181 15.9867 68.0811 15.9237C68.1454 15.8594 68.1807 15.7542 68.1807 15.6016ZM67.7609 14.8164V14.8448H66.8906V14.8164H67.7609Z" fill="#1CA3BB"/>
<path d="M61.6307 17.237C61.4088 17.237 61.2439 17.1881 61.136 17.0901C61.0294 16.9909 60.9724 16.8354 60.965 16.6234C60.9637 16.5936 60.9718 16.5701 60.9891 16.5527C61.0077 16.5341 61.0319 16.5248 61.0617 16.5248C61.0914 16.5248 61.115 16.5335 61.1323 16.5508C61.1497 16.5682 61.1596 16.5918 61.1621 16.6215C61.167 16.7777 61.2042 16.8868 61.2737 16.9488C61.3431 17.0108 61.4621 17.0418 61.6307 17.0418H62.1662C62.3423 17.0418 62.4644 17.0077 62.5326 16.9395C62.602 16.8701 62.6367 16.7486 62.6367 16.575C62.6367 16.399 62.602 16.2769 62.5326 16.2087C62.4644 16.1393 62.3423 16.1045 62.1662 16.1045H61.6567C61.4385 16.1045 61.2786 16.0537 61.177 15.9521C61.0753 15.8504 61.0245 15.6911 61.0245 15.4741C61.0245 15.2572 61.0747 15.0979 61.1751 14.9962C61.2768 14.8946 61.4361 14.8438 61.653 14.8438H62.1737C62.382 14.8438 62.5363 14.8902 62.6367 14.9832C62.7384 15.0762 62.7929 15.2225 62.8004 15.4221C62.8028 15.4518 62.7948 15.476 62.7762 15.4946C62.7588 15.512 62.7346 15.5206 62.7037 15.5206C62.6751 15.5206 62.6522 15.512 62.6349 15.4946C62.6175 15.4772 62.6076 15.4537 62.6051 15.4239C62.6001 15.2814 62.5654 15.1816 62.501 15.1245C62.4365 15.0675 62.3274 15.039 62.1737 15.039H61.653C61.4906 15.039 61.3778 15.0712 61.3146 15.1357C61.2513 15.1989 61.2197 15.3117 61.2197 15.4741C61.2197 15.6366 61.2513 15.75 61.3146 15.8145C61.379 15.8777 61.4931 15.9093 61.6567 15.9093H62.1662C62.3968 15.9093 62.5654 15.9632 62.672 16.0711C62.7787 16.1777 62.832 16.3457 62.832 16.575C62.832 16.8044 62.7787 16.9723 62.672 17.079C62.5654 17.1843 62.3968 17.237 62.1662 17.237H61.6307Z" fill="#1CA3BB"/>
<path d="M61.0627 16.4975C61.0982 16.4975 61.1296 16.508 61.1534 16.5318C61.175 16.5534 61.1869 16.5815 61.1907 16.6137L61.1913 16.6202L61.1914 16.6209V16.6216C61.1963 16.7751 61.2328 16.8744 61.2936 16.9287C61.355 16.9835 61.465 17.0144 61.6317 17.0144V17.0428L61.6007 17.0424C61.4535 17.0389 61.347 17.0099 61.2813 16.9555L61.2747 16.9498C61.2096 16.8917 61.1728 16.7922 61.1644 16.6512L61.1631 16.6225C61.1608 16.5946 61.1519 16.5722 61.1365 16.5552L61.1334 16.5519C61.116 16.5345 61.0924 16.5258 61.0627 16.5258C61.0329 16.5258 61.0087 16.5351 60.9901 16.5537C60.9728 16.5711 60.9647 16.5946 60.966 16.6244C60.9734 16.8364 61.0304 16.992 61.1371 17.0911C61.2415 17.186 61.3996 17.2349 61.6111 17.2379L61.6317 17.238H62.1673C62.3906 17.238 62.5559 17.1886 62.6629 17.0897L62.6731 17.08C62.7763 16.9767 62.8296 16.8158 62.8328 16.5974L62.833 16.576C62.833 16.3467 62.7797 16.1787 62.6731 16.0721C62.5664 15.9642 62.3978 15.9103 62.1673 15.9103V15.8819C62.4015 15.8819 62.5789 15.9366 62.6931 16.052C62.8073 16.1662 62.8613 16.343 62.8613 16.576C62.8613 16.8091 62.8073 16.9859 62.6931 17.1L62.693 17.1001C62.5788 17.213 62.4014 17.2664 62.1673 17.2664H61.6317C61.4063 17.2664 61.2332 17.2168 61.118 17.1121L61.1177 17.1119V17.1119C61.0036 17.0057 60.9452 16.8415 60.9376 16.6255L60.9375 16.6189C60.9374 16.5857 60.9475 16.5563 60.9701 16.5337C60.9947 16.509 61.0265 16.4975 61.0627 16.4975ZM62.1673 17.0144V17.0428H61.6317V17.0144H62.1673ZM62.6094 16.576C62.6094 16.402 62.5747 16.2898 62.5137 16.2299L62.5135 16.2297L62.5133 16.2296C62.4534 16.1686 62.3413 16.1339 62.1673 16.1339H61.6577C61.4359 16.1339 61.2671 16.0823 61.1579 15.9731C61.0488 15.864 60.9971 15.6959 60.9971 15.4752C60.9971 15.2545 61.0481 15.0865 61.156 14.9773L61.1561 14.9772C61.2652 14.868 61.4333 14.8164 61.654 14.8164V14.8448L61.6338 14.8449C61.4272 14.848 61.2746 14.8988 61.1761 14.9972C61.0757 15.0989 61.0255 15.2582 61.0255 15.4752L61.0257 15.4953C61.0287 15.702 61.0795 15.8546 61.178 15.9531C61.2764 16.0516 61.4296 16.1023 61.6375 16.1054L61.6577 16.1056H62.1673C62.3433 16.1056 62.4654 16.1403 62.5336 16.2097C62.603 16.2779 62.6377 16.4 62.6377 16.576C62.6377 16.7496 62.603 16.8711 62.5336 16.9405L62.527 16.9468C62.4577 17.0108 62.3378 17.0428 62.1673 17.0428V17.0144C62.3414 17.0144 62.4536 16.9804 62.5135 16.9205C62.5748 16.8592 62.6094 16.7474 62.6094 16.576ZM62.1673 15.8819V15.9103H61.6577V15.8819H62.1673ZM61.2208 15.4752C61.2208 15.3128 61.2524 15.1999 61.3156 15.1367C61.3749 15.0763 61.4777 15.0442 61.6241 15.0404L61.654 15.04H62.1747C62.3284 15.04 62.4375 15.0685 62.502 15.1256C62.5665 15.1826 62.6012 15.2824 62.6061 15.425C62.6086 15.4547 62.6185 15.4783 62.6359 15.4956C62.6511 15.5108 62.6705 15.5194 62.6942 15.5212L62.7047 15.5217C62.7337 15.5217 62.7568 15.514 62.7739 15.4988L62.7772 15.4956C62.7958 15.477 62.8038 15.4529 62.8014 15.4231C62.7939 15.2235 62.7394 15.0772 62.6377 14.9842C62.5404 14.8942 62.3926 14.8477 62.1941 14.8449L62.1747 14.8448V14.8164C62.3864 14.8164 62.549 14.8636 62.6568 14.9633H62.6569C62.766 15.0631 62.8219 15.2176 62.8296 15.4207L62.8301 15.4276C62.8314 15.4616 62.821 15.4919 62.7972 15.5157C62.7733 15.5397 62.7411 15.55 62.7047 15.55C62.67 15.55 62.6393 15.5392 62.6158 15.5157C62.5927 15.4926 62.5808 15.4622 62.5778 15.4273L62.5778 15.4266L62.5778 15.426C62.5729 15.2863 62.539 15.1961 62.4832 15.1468C62.4267 15.0968 62.3264 15.0684 62.1747 15.0684H61.654C61.4937 15.0684 61.3908 15.1005 61.3358 15.1566L61.3356 15.1568C61.2807 15.2117 61.2491 15.3147 61.2491 15.4752C61.2491 15.6353 61.2806 15.7391 61.3356 15.7954C61.3919 15.8504 61.4962 15.8819 61.6577 15.8819V15.9103C61.4992 15.9103 61.3872 15.8806 61.3218 15.8213L61.3156 15.8155C61.2563 15.755 61.2248 15.6516 61.2211 15.505L61.2208 15.4752ZM62.1747 14.8164V14.8448H61.654V14.8164H62.1747Z" fill="#1CA3BB"/>
<path d="M57.8388 17.2407C57.7731 17.2407 57.7402 17.2079 57.7402 17.1422V14.9423C57.7402 14.8766 57.7731 14.8438 57.8388 14.8438H59.2316C59.2973 14.8438 59.3302 14.8766 59.3302 14.9423C59.3302 15.0068 59.2973 15.039 59.2316 15.039H57.9355V15.9297H58.7927C58.8584 15.9297 58.8913 15.962 58.8913 16.0264C58.8913 16.0921 58.8584 16.125 58.7927 16.125H57.9355V17.0455H59.2316C59.2973 17.0455 59.3302 17.0777 59.3302 17.1422C59.3302 17.2079 59.2973 17.2407 59.2316 17.2407H57.8388Z" fill="#1CA3BB"/>
<path d="M57.7129 17.1432V14.9433C57.7129 14.9061 57.7222 14.873 57.7458 14.8494C57.7695 14.8257 57.8026 14.8164 57.8398 14.8164V14.8448L57.8279 14.8452C57.7701 14.849 57.7412 14.8817 57.7412 14.9433V17.1432L57.7416 17.1551C57.7452 17.209 57.774 17.2378 57.8279 17.2414L57.8398 17.2418H59.2326L59.2446 17.2414C59.2985 17.2378 59.3272 17.209 59.3308 17.1551L59.3312 17.1432C59.3312 17.0828 59.3023 17.0507 59.2446 17.0469L59.2326 17.0465V17.0181C59.2697 17.0181 59.3028 17.0272 59.3264 17.0504C59.3501 17.0737 59.3595 17.1065 59.3595 17.1432C59.3595 17.1804 59.3502 17.2136 59.3266 17.2372C59.303 17.2608 59.2698 17.2701 59.2326 17.2701H57.8398C57.8026 17.2701 57.7695 17.2608 57.7458 17.2372C57.7222 17.2136 57.7129 17.1804 57.7129 17.1432ZM58.8923 16.0275C58.8923 15.967 58.8634 15.9349 58.8057 15.9311L58.7938 15.9308V15.9024C58.8308 15.9024 58.8639 15.9115 58.8875 15.9347C58.9113 15.958 58.9207 15.9907 58.9207 16.0275C58.9207 16.0647 58.9113 16.0978 58.8877 16.1214C58.8641 16.1451 58.831 16.1544 58.7938 16.1544H57.9649V17.0181H59.2326V17.0465H57.9365V16.126H58.7938L58.8057 16.1256C58.8596 16.122 58.8883 16.0933 58.8919 16.0394L58.8923 16.0275ZM59.3312 14.9433C59.3312 14.8817 59.3023 14.849 59.2446 14.8452L59.2326 14.8448V14.8164C59.2698 14.8164 59.303 14.8257 59.3266 14.8494C59.3502 14.873 59.3595 14.9061 59.3595 14.9433C59.3595 14.9801 59.3501 15.0128 59.3264 15.0361C59.3028 15.0593 59.2697 15.0684 59.2326 15.0684H57.9649V15.9024H58.7938V15.9308H57.9365V15.04H59.2326L59.2446 15.0396C59.2984 15.0361 59.3272 15.0079 59.3308 14.955L59.3312 14.9433ZM59.2326 14.8164V14.8448H57.8398V14.8164H59.2326Z" fill="#1CA3BB"/>
<path d="M55.7587 17.2426C55.7277 17.2426 55.7035 17.2339 55.6862 17.2166C55.6688 17.1992 55.6602 17.175 55.6602 17.144V14.9423C55.6602 14.9113 55.6688 14.8871 55.6862 14.8698C55.7035 14.8524 55.7277 14.8438 55.7587 14.8438C55.7885 14.8438 55.812 14.8524 55.8294 14.8698C55.8467 14.8871 55.8554 14.9113 55.8554 14.9423V17.144C55.8554 17.175 55.8467 17.1992 55.8294 17.2166C55.812 17.2339 55.7885 17.2426 55.7587 17.2426Z" fill="#1CA3BB"/>
<path d="M55.8564 14.9433C55.8564 14.9123 55.8477 14.8882 55.8304 14.8708C55.8152 14.8556 55.7953 14.8471 55.7706 14.8452L55.7597 14.8448C55.7287 14.8448 55.7046 14.8534 55.6872 14.8708L55.684 14.8741C55.6688 14.8912 55.6612 14.9143 55.6612 14.9433V17.1451C55.6612 17.1761 55.6698 17.2002 55.6872 17.2176C55.7024 17.2328 55.7228 17.2413 55.7484 17.2432L55.7597 17.2436C55.7876 17.2436 55.8101 17.236 55.8271 17.2208L55.8304 17.2176C55.8477 17.2002 55.8564 17.1761 55.8564 17.1451V14.9433ZM55.8848 17.1451C55.8848 17.1815 55.8744 17.2137 55.8504 17.2376C55.8267 17.2614 55.7953 17.272 55.7597 17.272C55.7233 17.272 55.6911 17.2616 55.6672 17.2376C55.6432 17.2137 55.6328 17.1815 55.6328 17.1451V14.9433C55.6328 14.9069 55.6432 14.8747 55.6672 14.8507C55.6911 14.8268 55.7233 14.8164 55.7597 14.8164C55.7953 14.8164 55.8267 14.827 55.8504 14.8507C55.8744 14.8747 55.8848 14.9069 55.8848 14.9433V17.1451Z" fill="#1CA3BB"/>
<path d="M52.7188 17.2407C52.4498 17.2407 52.2533 17.1788 52.1293 17.0548C52.0053 16.9308 51.9434 16.7343 51.9434 16.4653V15.6192C51.9434 15.3477 52.0047 15.1506 52.1275 15.0278C52.2514 14.9051 52.4473 14.8438 52.7151 14.8438H53.1651C53.3932 14.8438 53.563 14.8915 53.6746 14.9869C53.7862 15.0812 53.8475 15.233 53.8587 15.4425C53.8624 15.476 53.8556 15.5014 53.8383 15.5188C53.8221 15.5361 53.798 15.5448 53.7657 15.5448C53.7037 15.5448 53.6696 15.512 53.6635 15.4463C53.6548 15.2925 53.6126 15.1865 53.537 15.1283C53.4614 15.0688 53.3374 15.039 53.1651 15.039H52.7151C52.5725 15.039 52.4591 15.0576 52.3748 15.0948C52.2905 15.1307 52.2297 15.1915 52.1925 15.277C52.1566 15.3613 52.1386 15.4754 52.1386 15.6192V16.4653C52.1386 16.6091 52.1572 16.7232 52.1944 16.8075C52.2316 16.8918 52.2923 16.9525 52.3766 16.9897C52.4609 17.0269 52.575 17.0455 52.7188 17.0455H53.1651C53.2915 17.0455 53.3913 17.03 53.4645 16.999C53.5389 16.968 53.5915 16.9159 53.6225 16.8428C53.6535 16.7697 53.669 16.6686 53.669 16.5397V16.3072L53.2618 16.3035C53.1973 16.3035 53.1651 16.2707 53.1651 16.205C53.1651 16.1405 53.1973 16.1083 53.2618 16.1083L53.7676 16.112C53.8321 16.112 53.8643 16.1442 53.8643 16.2087V16.5397C53.8643 16.7852 53.8091 16.9637 53.6988 17.0752C53.5885 17.1856 53.4106 17.2407 53.1651 17.2407H52.7188Z" fill="#1CA3BB"/>
<path d="M53.1661 17.0181V17.0465H52.7198V17.0181H53.1661ZM53.6417 16.5407V16.3363L53.2626 16.3329V16.3329C53.2259 16.3328 53.1933 16.3234 53.17 16.2998C53.1468 16.2761 53.1377 16.2431 53.1377 16.206C53.1377 16.1694 53.1469 16.1367 53.1702 16.1134C53.1935 16.0901 53.2262 16.0809 53.2628 16.0809H53.263L53.7688 16.0846H53.7688C53.8053 16.0847 53.8379 16.0938 53.8612 16.1171C53.8845 16.1404 53.8936 16.1731 53.8936 16.2097V16.5407C53.8936 16.7895 53.8379 16.977 53.72 17.0962L53.7198 17.0963C53.6018 17.2143 53.4149 17.2701 53.1661 17.2701H52.7198C52.4472 17.2701 52.2418 17.2074 52.1103 17.0759C51.9787 16.9443 51.916 16.7389 51.916 16.4663V15.6202C51.916 15.3453 51.978 15.1392 52.1084 15.0088L52.1085 15.0087C52.24 14.8785 52.4448 14.8164 52.7161 14.8164V14.8448L52.6912 14.8449C52.4361 14.8486 52.2486 14.91 52.1285 15.0289C52.0058 15.1516 51.9444 15.3487 51.9444 15.6202V16.4663C51.9444 16.7353 52.0064 16.9318 52.1303 17.0558C52.2504 17.1759 52.4386 17.2378 52.6948 17.2416L52.7198 17.2418H53.1661L53.1889 17.2416C53.4151 17.2384 53.5819 17.1866 53.6893 17.0864L53.6998 17.0763C53.8101 16.9647 53.8653 16.7862 53.8653 16.5407V16.2097C53.8653 16.1493 53.837 16.1172 53.7803 16.1134L53.7686 16.113L53.2628 16.1093C53.1983 16.1093 53.1661 16.1415 53.1661 16.206L53.1665 16.2179C53.1703 16.2757 53.2024 16.3045 53.2628 16.3045L53.67 16.3083V16.5407L53.6699 16.5645C53.668 16.6821 53.6526 16.7752 53.6235 16.8438C53.5926 16.9169 53.5399 16.969 53.4655 17L53.4515 17.0057C53.3798 17.0329 53.2846 17.0465 53.1661 17.0465V17.0181C53.2907 17.0181 53.3862 17.0028 53.4544 16.9739L53.4546 16.9738C53.5222 16.9456 53.5694 16.899 53.5974 16.8328C53.6263 16.7646 53.6417 16.6679 53.6417 16.5407ZM52.1396 16.4663V15.6202C52.1396 15.4764 52.1576 15.3623 52.1936 15.278C52.2284 15.1979 52.284 15.1395 52.3603 15.1028L52.3758 15.0958C52.4548 15.0609 52.5595 15.0424 52.6897 15.0402L52.7161 15.04H53.1661C53.3384 15.04 53.4624 15.0698 53.538 15.1293C53.6136 15.1876 53.6558 15.2936 53.6645 15.4473C53.6703 15.5089 53.7006 15.5416 53.7555 15.5455L53.7668 15.5458C53.799 15.5458 53.8231 15.5371 53.8393 15.5198C53.8566 15.5024 53.8634 15.477 53.8597 15.4435C53.8486 15.234 53.7872 15.0822 53.6756 14.9879C53.564 14.8925 53.3942 14.8448 53.1661 14.8448V14.8164C53.3973 14.8164 53.575 14.8646 53.6939 14.9663L53.705 14.976C53.8175 15.0775 53.8769 15.2347 53.888 15.4416C53.892 15.4794 53.8847 15.5139 53.86 15.5391L53.8601 15.5391C53.86 15.5392 53.8599 15.5392 53.8598 15.5393C53.8597 15.5395 53.8595 15.5397 53.8593 15.5399L53.8593 15.5398C53.8361 15.5643 53.8035 15.5742 53.7668 15.5742C53.7308 15.5742 53.6988 15.5645 53.675 15.5416C53.6515 15.5189 53.6397 15.4869 53.6362 15.4499L53.6362 15.4494L53.6361 15.4489C53.6277 15.2984 53.5867 15.2026 53.5207 15.1518L53.5205 15.1516C53.4525 15.0981 53.3365 15.0684 53.1661 15.0684H52.7161C52.5755 15.0684 52.4665 15.0868 52.3872 15.1218L52.3869 15.1219C52.3094 15.155 52.2539 15.2103 52.2196 15.2894C52.1858 15.3687 52.168 15.4784 52.168 15.6202V16.4663C52.168 16.6082 52.1864 16.7178 52.2214 16.797C52.2557 16.8749 52.3113 16.9304 52.3891 16.9648C52.4683 16.9997 52.578 17.0181 52.7198 17.0181V17.0465C52.585 17.0465 52.4763 17.0302 52.3938 16.9975L52.3776 16.9907C52.2986 16.9559 52.2403 16.9003 52.2027 16.824L52.1954 16.8085C52.1582 16.7242 52.1396 16.6101 52.1396 16.4663ZM53.1661 14.8164V14.8448H52.7161V14.8164H53.1661Z" fill="#1CA3BB"/>
<path d="M48.9395 17.2408C48.6705 17.2408 48.474 17.1788 48.35 17.0549C48.226 16.9309 48.1641 16.7344 48.1641 16.4654V15.6174C48.1641 15.3459 48.226 15.1488 48.35 15.0261C48.474 14.9021 48.6692 14.8413 48.9358 14.8438H49.3858C49.6548 14.8438 49.8507 14.9058 49.9734 15.0298C50.0974 15.1538 50.1594 15.3502 50.1594 15.6193V16.4654C50.1594 16.7344 50.0974 16.9309 49.9734 17.0549C49.8507 17.1788 49.6548 17.2408 49.3858 17.2408H48.9395ZM48.9395 17.0456H49.3858C49.5284 17.0456 49.6418 17.027 49.7261 16.9898C49.8104 16.9526 49.8711 16.8918 49.9083 16.8075C49.9455 16.7232 49.9641 16.6092 49.9641 16.4654V15.6193C49.9641 15.4767 49.9455 15.3633 49.9083 15.279C49.8711 15.1947 49.8104 15.1339 49.7261 15.0967C49.6418 15.0583 49.5284 15.0391 49.3858 15.0391H48.9358C48.7932 15.0378 48.6798 15.0558 48.5955 15.093C48.5124 15.129 48.4523 15.1897 48.4151 15.2752C48.3779 15.3595 48.3593 15.4736 48.3593 15.6174V16.4654C48.3593 16.6092 48.3779 16.7232 48.4151 16.8075C48.4523 16.8918 48.513 16.9526 48.5973 16.9898C48.6816 17.027 48.7957 17.0456 48.9395 17.0456Z" fill="#1CA3BB"/>
<path d="M48.1348 16.4664V15.6184C48.1348 15.3435 48.1974 15.1373 48.3291 15.0069C48.4607 14.8754 48.6649 14.814 48.9351 14.8165H49.3848V14.8448H48.9348L48.9101 14.8448C48.6562 14.8462 48.4692 14.907 48.3491 15.0271L48.3377 15.0388C48.2213 15.1622 48.1631 15.3554 48.1631 15.6184V16.4664L48.1633 16.4914C48.1671 16.7476 48.229 16.9358 48.3491 17.0559C48.4731 17.1798 48.6695 17.2418 48.9386 17.2418H49.3848C49.6539 17.2418 49.8498 17.1799 49.9725 17.0559C50.0926 16.9358 50.1545 16.7476 50.1583 16.4914L50.1584 16.4664V15.6203C50.1584 15.3597 50.1003 15.1671 49.9839 15.0426L49.9725 15.0308C49.8536 14.9107 49.666 14.8488 49.4099 14.845L49.3848 14.8448V14.8165C49.6573 14.8165 49.8622 14.8791 49.9925 15.0107C50.1241 15.1423 50.1868 15.3477 50.1868 15.6203V16.4664C50.1868 16.739 50.1241 16.9444 49.9925 17.0759L49.9925 17.0759C49.8622 17.2075 49.6573 17.2702 49.3848 17.2702H48.9386C48.666 17.2702 48.4606 17.2075 48.329 17.0759C48.1975 16.9444 48.1348 16.739 48.1348 16.4664ZM49.3848 17.0182V17.0466H48.9386V17.0182H49.3848ZM48.3584 16.4664V15.6184C48.3584 15.4836 48.3747 15.3749 48.4074 15.2924L48.4142 15.2763C48.4514 15.1907 48.5115 15.13 48.5945 15.094C48.6736 15.0591 48.7782 15.0412 48.9085 15.0401H49.3848C49.5274 15.0401 49.6409 15.0593 49.7252 15.0977C49.8094 15.1349 49.8702 15.1957 49.9074 15.28C49.9446 15.3643 49.9632 15.4777 49.9632 15.6203V16.4664L49.963 16.493C49.9608 16.6243 49.9422 16.7295 49.9074 16.8085C49.8702 16.8928 49.8094 16.9536 49.7252 16.9908C49.6409 17.028 49.5274 17.0466 49.3848 17.0466V17.0182C49.5254 17.0182 49.6344 16.9998 49.7137 16.9648C49.7915 16.9305 49.8471 16.8749 49.8815 16.7971C49.9164 16.7179 49.9348 16.6082 49.9348 16.4664V15.6203C49.9348 15.4797 49.9164 15.3707 49.8815 15.2914C49.8471 15.2136 49.7915 15.158 49.7137 15.1237L49.7134 15.1235C49.6342 15.0874 49.5253 15.0684 49.3848 15.0684H48.9086C48.7806 15.0695 48.6802 15.0872 48.606 15.12L48.6058 15.12C48.5296 15.153 48.4746 15.2084 48.4402 15.2876L48.4401 15.2877C48.4052 15.3669 48.3867 15.4766 48.3867 15.6184V16.4664C48.3867 16.6082 48.4052 16.7179 48.4401 16.7971C48.4745 16.8749 48.53 16.9305 48.6078 16.9648C48.6871 16.9998 48.7967 17.0182 48.9386 17.0182V17.0466L48.9119 17.0464C48.7806 17.0442 48.6754 17.0256 48.5964 16.9908C48.5174 16.9559 48.4591 16.9003 48.4214 16.8241L48.4142 16.8085C48.3793 16.7295 48.3608 16.6243 48.3586 16.493L48.3584 16.4664Z" fill="#1CA3BB"/>
<path d="M45.3349 17.2407C45.2692 17.2407 45.2363 17.2079 45.2363 17.1422V14.9423C45.2363 14.8766 45.2692 14.8438 45.3349 14.8438C45.3993 14.8438 45.4316 14.8766 45.4316 14.9423V17.0455H46.5622C46.6279 17.0455 46.6607 17.0777 46.6607 17.1422C46.6607 17.2079 46.6279 17.2407 46.5622 17.2407H45.3349Z" fill="#1CA3BB"/>
<path d="M45.4306 14.9433C45.4306 14.8817 45.4023 14.849 45.3457 14.8452L45.334 14.8448C45.2682 14.8448 45.2354 14.8776 45.2354 14.9433V17.1432L45.2358 17.1551C45.2394 17.209 45.2681 17.2378 45.322 17.2414L45.334 17.2418H46.5612L46.5732 17.2414C46.6271 17.2378 46.6558 17.209 46.6594 17.1551L46.6598 17.1432C46.6598 17.0787 46.6269 17.0465 46.5612 17.0465V17.0181C46.5983 17.0181 46.6314 17.0272 46.655 17.0504C46.6788 17.0737 46.6882 17.1065 46.6882 17.1432C46.6882 17.1804 46.6788 17.2136 46.6552 17.2372C46.6316 17.2608 46.5985 17.2701 46.5612 17.2701H45.334C45.2967 17.2701 45.2636 17.2608 45.24 17.2372C45.2164 17.2136 45.207 17.1804 45.207 17.1432V14.9433C45.207 14.9061 45.2164 14.873 45.24 14.8494C45.2636 14.8257 45.2967 14.8164 45.334 14.8164C45.3707 14.8164 45.4034 14.8258 45.4267 14.8496C45.4499 14.8732 45.459 14.9062 45.459 14.9433V17.0181H46.5612V17.0465H45.4306V14.9433Z" fill="#1CA3BB"/>
<path d="M42.1817 17.2408C41.9127 17.2408 41.7162 17.1788 41.5922 17.0549C41.4682 16.9309 41.4062 16.7344 41.4062 16.4654V15.6174C41.4062 15.3459 41.4682 15.1488 41.5922 15.0261C41.7162 14.9021 41.9114 14.8413 42.178 14.8438H42.628C42.897 14.8438 43.0929 14.9058 43.2156 15.0298C43.3396 15.1538 43.4016 15.3502 43.4016 15.6193V16.4654C43.4016 16.7344 43.3396 16.9309 43.2156 17.0549C43.0929 17.1788 42.897 17.2408 42.628 17.2408H42.1817ZM42.1817 17.0456H42.628C42.7705 17.0456 42.884 17.027 42.9683 16.9898C43.0526 16.9526 43.1133 16.8918 43.1505 16.8075C43.1877 16.7232 43.2063 16.6092 43.2063 16.4654V15.6193C43.2063 15.4767 43.1877 15.3633 43.1505 15.279C43.1133 15.1947 43.0526 15.1339 42.9683 15.0967C42.884 15.0583 42.7705 15.0391 42.628 15.0391H42.178C42.0354 15.0378 41.922 15.0558 41.8377 15.093C41.7546 15.129 41.6945 15.1897 41.6573 15.2752C41.6201 15.3595 41.6015 15.4736 41.6015 15.6174V16.4654C41.6015 16.6092 41.6201 16.7232 41.6573 16.8075C41.6945 16.8918 41.7552 16.9526 41.8395 16.9898C41.9238 17.027 42.0379 17.0456 42.1817 17.0456Z" fill="#1CA3BB"/>
<path d="M41.3789 16.4664V15.6184C41.3789 15.3435 41.4416 15.1373 41.5733 15.0069C41.7049 14.8754 41.9091 14.814 42.1792 14.8165H42.629V14.8448H42.179L42.1542 14.8448C41.9003 14.8462 41.7133 14.907 41.5932 15.0271L41.5818 15.0388C41.4654 15.1622 41.4073 15.3554 41.4073 15.6184V16.4664L41.4075 16.4914C41.4112 16.7476 41.4731 16.9358 41.5932 17.0559C41.7172 17.1798 41.9137 17.2418 42.1827 17.2418H42.629C42.898 17.2418 43.0939 17.1799 43.2166 17.0559C43.3367 16.9358 43.3986 16.7476 43.4024 16.4914L43.4026 16.4664V15.6203C43.4026 15.3597 43.3444 15.1671 43.2281 15.0426L43.2166 15.0308C43.0977 14.9107 42.9102 14.8488 42.654 14.845L42.629 14.8448V14.8165C42.9015 14.8165 43.1063 14.8791 43.2366 15.0107C43.3682 15.1423 43.4309 15.3477 43.4309 15.6203V16.4664C43.4309 16.739 43.3682 16.9444 43.2367 17.0759L43.2366 17.0759C43.1063 17.2075 42.9015 17.2702 42.629 17.2702H42.1827C41.9101 17.2702 41.7047 17.2075 41.5732 17.0759C41.4416 16.9444 41.3789 16.739 41.3789 16.4664ZM42.629 17.0182V17.0466H42.1827V17.0182H42.629ZM41.6025 16.4664V15.6184C41.6025 15.4836 41.6189 15.3749 41.6516 15.2924L41.6583 15.2763C41.6955 15.1907 41.7556 15.13 41.8387 15.094C41.9177 15.0591 42.0224 15.0412 42.1526 15.0401H42.629C42.7716 15.0401 42.885 15.0593 42.9693 15.0977C43.0536 15.1349 43.1143 15.1957 43.1515 15.28C43.1887 15.3643 43.2073 15.4777 43.2073 15.6203V16.4664L43.2071 16.493C43.2049 16.6243 43.1864 16.7295 43.1515 16.8085C43.1143 16.8928 43.0536 16.9536 42.9693 16.9908C42.885 17.028 42.7716 17.0466 42.629 17.0466V17.0182C42.7695 17.0182 42.8786 16.9998 42.9579 16.9648C43.0357 16.9305 43.0913 16.8749 43.1256 16.7971C43.1606 16.7179 43.179 16.6082 43.179 16.4664V15.6203C43.179 15.4797 43.1606 15.3707 43.1256 15.2914C43.0913 15.2136 43.0357 15.158 42.9579 15.1237L42.9575 15.1235C42.8784 15.0874 42.7695 15.0684 42.629 15.0684H42.1528C42.0247 15.0695 41.9243 15.0872 41.8501 15.12L41.85 15.12C41.7737 15.153 41.7187 15.2084 41.6843 15.2876L41.6843 15.2877C41.6493 15.3669 41.6309 15.4766 41.6309 15.6184V16.4664C41.6309 16.6082 41.6493 16.7179 41.6843 16.7971C41.7186 16.8749 41.7742 16.9305 41.852 16.9648C41.9312 16.9998 42.0409 17.0182 42.1827 17.0182V17.0466L42.1561 17.0464C42.0248 17.0442 41.9196 17.0256 41.8405 16.9908C41.7615 16.9559 41.7032 16.9003 41.6656 16.8241L41.6583 16.8085C41.6234 16.7295 41.6049 16.6243 41.6027 16.493L41.6025 16.4664Z" fill="#1CA3BB"/>
<path d="M37.747 17.2407C37.6813 17.2407 37.6484 17.2079 37.6484 17.1422V14.9423C37.6484 14.8766 37.6813 14.8438 37.747 14.8438C37.7817 14.8438 37.8152 14.863 37.8474 14.9014L39.4225 16.9246H39.3778V14.9423C39.3778 14.8766 39.4107 14.8438 39.4764 14.8438C39.5408 14.8438 39.5731 14.8766 39.5731 14.9423V17.1422C39.5731 17.2079 39.5408 17.2407 39.4764 17.2407C39.4404 17.2407 39.407 17.2215 39.376 17.1831L37.7991 15.1599H37.8437V17.1422C37.8437 17.2079 37.8115 17.2407 37.747 17.2407Z" fill="#1CA3BB"/>
<path d="M39.5741 14.9433C39.5741 14.8776 39.5419 14.8448 39.4774 14.8448C39.4117 14.8448 39.3788 14.8776 39.3788 14.9433V16.8683L37.8484 14.9024C37.8182 14.8664 37.7869 14.8472 37.7545 14.845L37.748 14.8448C37.6823 14.8448 37.6495 14.8776 37.6495 14.9433V17.1432L37.6498 17.1551C37.6534 17.209 37.6822 17.2378 37.7361 17.2414L37.748 17.2418C37.8084 17.2418 37.8406 17.2129 37.8443 17.1551L37.8447 17.1432V15.2181L39.377 17.1841C39.406 17.2201 39.4373 17.2393 39.4707 17.2415L39.4774 17.2418C39.5378 17.2418 39.5699 17.2129 39.5737 17.1551L39.5741 17.1432V14.9433ZM39.6025 17.1432C39.6025 17.1803 39.5934 17.2133 39.5702 17.237C39.5469 17.2607 39.5141 17.2701 39.4774 17.2701C39.43 17.2701 39.3892 17.2444 39.3549 17.2019L39.3548 17.2017L39.3546 17.2016L37.8731 15.3007V17.1432C37.8731 17.1803 37.864 17.2133 37.8408 17.237C37.8175 17.2607 37.7848 17.2701 37.748 17.2701C37.7108 17.2701 37.6777 17.2608 37.654 17.2372C37.6304 17.2136 37.6211 17.1804 37.6211 17.1432V14.9433C37.6211 14.9061 37.6304 14.873 37.654 14.8494C37.6777 14.8257 37.7108 14.8164 37.748 14.8164C37.7914 14.8164 37.8299 14.8392 37.8635 14.8765L37.8701 14.8842L37.8705 14.8846L37.8708 14.885L39.3505 16.7857V14.9433C39.3505 14.9061 39.3598 14.873 39.3834 14.8494C39.4071 14.8257 39.4402 14.8164 39.4774 14.8164C39.5141 14.8164 39.5469 14.8258 39.5702 14.8496C39.5934 14.8732 39.6025 14.9062 39.6025 14.9433V17.1432Z" fill="#1CA3BB"/>
<path d="M33.9091 17.2407C33.8794 17.2407 33.8552 17.2321 33.8366 17.2147C33.8192 17.1961 33.8105 17.1719 33.8105 17.1422V14.9423C33.8105 14.9126 33.8192 14.889 33.8366 14.8716C33.8552 14.853 33.8794 14.8438 33.9091 14.8438C33.9389 14.8438 33.9624 14.853 33.9798 14.8716C33.9971 14.889 34.0058 14.9126 34.0058 14.9423V15.9279H35.566V14.9423C35.566 14.9126 35.5746 14.889 35.592 14.8716C35.6094 14.853 35.6329 14.8438 35.6627 14.8438C35.6924 14.8438 35.716 14.853 35.7333 14.8716C35.7519 14.889 35.7612 14.9126 35.7612 14.9423V17.1422C35.7612 17.1719 35.7519 17.1961 35.7333 17.2147C35.716 17.2321 35.6924 17.2407 35.6627 17.2407C35.6329 17.2407 35.6094 17.2321 35.592 17.2147C35.5746 17.1961 35.566 17.1719 35.566 17.1422V16.1231H34.0058V17.1422C34.0058 17.1719 33.9971 17.1961 33.9798 17.2147C33.9624 17.2321 33.9389 17.2407 33.9091 17.2407Z" fill="#1CA3BB"/>
<path d="M34.0049 14.9433C34.0049 14.9136 33.9962 14.89 33.9788 14.8727C33.9626 14.8552 33.9408 14.846 33.9137 14.8449L33.9082 14.8448C33.8784 14.8448 33.8542 14.8541 33.8356 14.8727C33.8183 14.89 33.8096 14.9136 33.8096 14.9433V17.1432L33.81 17.1541C33.8119 17.1789 33.8205 17.1995 33.8356 17.2157C33.8519 17.2309 33.8725 17.2395 33.8973 17.2414L33.9082 17.2418C33.9361 17.2418 33.9585 17.2341 33.9755 17.2189L33.9788 17.2157C33.994 17.1995 34.0026 17.1789 34.0045 17.1541L34.0049 17.1432V16.1241H35.565V17.1432L35.5654 17.1541C35.5673 17.1789 35.5759 17.1995 35.5911 17.2157C35.6062 17.2309 35.6262 17.2395 35.6509 17.2414L35.6617 17.2418C35.6896 17.2418 35.7121 17.2341 35.7291 17.2189L35.7324 17.2157C35.7498 17.1983 35.7591 17.176 35.7602 17.1487L35.7603 17.1432V14.9433C35.7603 14.9136 35.751 14.89 35.7324 14.8727C35.7161 14.8552 35.6944 14.846 35.6672 14.8449L35.6617 14.8448C35.632 14.8448 35.6084 14.8541 35.5911 14.8727C35.5737 14.89 35.565 14.9136 35.565 14.9433V15.9289H34.0049V14.9433ZM35.7887 17.1432C35.7887 17.1794 35.7771 17.2112 35.7525 17.2358C35.7287 17.2596 35.6973 17.2701 35.6617 17.2701C35.6262 17.2701 35.5948 17.2596 35.571 17.2358L35.5703 17.2351C35.5473 17.2103 35.5367 17.1788 35.5367 17.1432V16.1525H34.0332V17.1432C34.0332 17.1788 34.0226 17.2103 33.9996 17.2351L33.9992 17.2354L33.9989 17.2358C33.9751 17.2595 33.9437 17.2701 33.9082 17.2701C33.8725 17.2701 33.841 17.2595 33.8163 17.2365L33.8156 17.2358L33.8149 17.2351C33.7918 17.2103 33.7813 17.1788 33.7812 17.1432V14.9433C33.7812 14.9078 33.7918 14.8764 33.8156 14.8526C33.8402 14.828 33.872 14.8164 33.9082 14.8164C33.944 14.8164 33.9753 14.8278 33.9988 14.8526H33.9989C34.0226 14.8764 34.0332 14.9078 34.0332 14.9433V15.9005H35.5367V14.9433C35.5367 14.9078 35.5472 14.8764 35.571 14.8526C35.5946 14.8278 35.6259 14.8164 35.6617 14.8164C35.6975 14.8164 35.7289 14.8278 35.7524 14.8526C35.7773 14.8762 35.7887 14.9075 35.7887 14.9433V17.1432Z" fill="#1CA3BB"/>
<path d="M30.8711 17.2407C30.6021 17.2407 30.4056 17.1788 30.2817 17.0548C30.1577 16.9308 30.0957 16.7343 30.0957 16.4653V15.6192C30.0957 15.3477 30.1571 15.1506 30.2798 15.0278C30.4038 14.9051 30.5996 14.8438 30.8674 14.8438H31.3174C31.5455 14.8438 31.7154 14.8915 31.827 14.9869C31.9385 15.0812 31.9999 15.233 32.011 15.4425C32.0148 15.476 32.0079 15.5014 31.9906 15.5188C31.9745 15.5361 31.9503 15.5448 31.9181 15.5448C31.8561 15.5448 31.822 15.512 31.8158 15.4463C31.8071 15.2925 31.765 15.1865 31.6893 15.1283C31.6137 15.0688 31.4898 15.039 31.3174 15.039H30.8674C30.7249 15.039 30.6114 15.0576 30.5271 15.0948C30.4428 15.1307 30.3821 15.1915 30.3449 15.277C30.3089 15.3613 30.291 15.4754 30.291 15.6192V16.4653C30.291 16.6091 30.3096 16.7232 30.3467 16.8075C30.3839 16.8918 30.4447 16.9525 30.529 16.9897C30.6133 17.0269 30.7273 17.0455 30.8711 17.0455H31.3174C31.4898 17.0455 31.6137 17.0164 31.6893 16.9581C31.765 16.8986 31.8071 16.792 31.8158 16.6382C31.822 16.5725 31.8561 16.5397 31.9181 16.5397C31.9503 16.5397 31.9745 16.549 31.9906 16.5676C32.0079 16.5849 32.0148 16.6097 32.011 16.642C31.9999 16.8515 31.9385 17.004 31.827 17.0994C31.7154 17.1936 31.5455 17.2407 31.3174 17.2407H30.8711Z" fill="#1CA3BB"/>
<path d="M30.0684 16.4663V15.6202C30.0684 15.3453 30.1304 15.1392 30.2607 15.0088L30.2609 15.0087C30.3924 14.8785 30.5971 14.8164 30.8684 14.8164V14.8448L30.8435 14.8449C30.5885 14.8486 30.4009 14.91 30.2808 15.0289C30.1581 15.1516 30.0967 15.3487 30.0967 15.6202V16.4663C30.0967 16.7353 30.1587 16.9318 30.2827 17.0558C30.4028 17.1759 30.5909 17.2378 30.8471 17.2416L30.8722 17.2418H31.3184L31.3397 17.2416C31.5501 17.2389 31.7093 17.1947 31.8173 17.1091L31.828 17.1004C31.9395 17.005 32.0009 16.8525 32.0121 16.643C32.0158 16.6107 32.009 16.5859 31.9916 16.5686C31.9765 16.5512 31.9543 16.5419 31.925 16.5408L31.9191 16.5407C31.8571 16.5407 31.823 16.5736 31.8168 16.6393L31.8159 16.6535C31.8055 16.7996 31.7636 16.9014 31.6904 16.9591C31.6147 17.0174 31.4908 17.0465 31.3184 17.0465V17.0181C31.4889 17.0181 31.605 16.989 31.6731 16.9366C31.7392 16.8845 31.78 16.7879 31.7885 16.6377L31.7885 16.6371L31.7886 16.6366C31.7921 16.5996 31.8038 16.5676 31.8273 16.5449C31.8512 16.522 31.8831 16.5123 31.9191 16.5123C31.9561 16.5123 31.9887 16.523 32.0116 16.5485C32.0366 16.5735 32.0443 16.6073 32.0404 16.6445L32.0391 16.6644C32.025 16.8684 31.9623 17.0228 31.8464 17.122L31.8463 17.1221C31.7274 17.2225 31.5497 17.2701 31.3184 17.2701H30.8722C30.5996 17.2701 30.3942 17.2074 30.2626 17.0759C30.1311 16.9443 30.0684 16.7389 30.0684 16.4663ZM31.3184 17.0181V17.0465H30.8722V17.0181H31.3184ZM30.292 16.4663V15.6202C30.292 15.4764 30.31 15.3623 30.3459 15.278C30.3808 15.1979 30.4363 15.1395 30.5126 15.1028L30.5281 15.0958C30.6072 15.0609 30.7118 15.0424 30.842 15.0402L30.8684 15.04H31.3184C31.4908 15.04 31.6147 15.0698 31.6904 15.1293C31.766 15.1876 31.8081 15.2936 31.8168 15.4473C31.8226 15.5089 31.853 15.5416 31.9078 15.5455L31.9191 15.5458C31.9513 15.5458 31.9755 15.5371 31.9916 15.5198C32.009 15.5024 32.0158 15.477 32.0121 15.4435C32.0009 15.234 31.9395 15.0822 31.828 14.9879C31.7164 14.8925 31.5465 14.8448 31.3184 14.8448V14.8164C31.5497 14.8164 31.7274 14.8647 31.8463 14.9663L31.8573 14.976C31.9698 15.0775 32.0293 15.2347 32.0404 15.4416C32.0443 15.4794 32.037 15.5139 32.0124 15.5391L32.0124 15.5391C32.0123 15.5392 32.0122 15.5392 32.0122 15.5393C32.012 15.5395 32.0118 15.5397 32.0116 15.5399L32.0116 15.5398C31.9885 15.5643 31.9559 15.5742 31.9191 15.5742C31.8831 15.5742 31.8512 15.5645 31.8273 15.5416C31.8038 15.5189 31.7921 15.4869 31.7886 15.4499L31.7885 15.4494L31.7885 15.4489C31.78 15.2984 31.739 15.2026 31.6731 15.1518L31.6728 15.1516C31.6048 15.0981 31.4888 15.0684 31.3184 15.0684H30.8684C30.7279 15.0684 30.6188 15.0868 30.5396 15.1218L30.5393 15.1219C30.4618 15.155 30.4063 15.2103 30.3719 15.2894C30.3381 15.3687 30.3203 15.4784 30.3203 15.6202V16.4663C30.3203 16.6082 30.3388 16.7178 30.3737 16.797C30.408 16.8749 30.4636 16.9304 30.5414 16.9648C30.6207 16.9997 30.7303 17.0181 30.8722 17.0181V17.0465C30.7373 17.0465 30.6287 17.0302 30.5461 16.9975L30.53 16.9907C30.451 16.9559 30.3926 16.9003 30.355 16.824L30.3478 16.8085C30.3106 16.7242 30.292 16.6101 30.292 16.4663ZM31.3184 14.8164V14.8448H30.8684V14.8164H31.3184Z" fill="#1CA3BB"/>
<path d="M27.0439 17.2407C26.9782 17.2407 26.9453 17.2079 26.9453 17.1422V14.9423C26.9453 14.8766 26.9782 14.8438 27.0439 14.8438H28.4367C28.5024 14.8438 28.5352 14.8766 28.5352 14.9423C28.5352 15.0068 28.5024 15.039 28.4367 15.039H27.1406V15.9297H27.9978C28.0635 15.9297 28.0964 15.962 28.0964 16.0264C28.0964 16.0921 28.0635 16.125 27.9978 16.125H27.1406V17.0455H28.4367C28.5024 17.0455 28.5352 17.0777 28.5352 17.1422C28.5352 17.2079 28.5024 17.2407 28.4367 17.2407H27.0439Z" fill="#1CA3BB"/>
<path d="M26.916 17.1432V14.9433C26.916 14.9061 26.9254 14.873 26.949 14.8494C26.9726 14.8257 27.0057 14.8164 27.0429 14.8164V14.8448L27.031 14.8452C26.9733 14.849 26.9444 14.8817 26.9444 14.9433V17.1432L26.9448 17.1551C26.9484 17.209 26.9771 17.2378 27.031 17.2414L27.0429 17.2418H28.4358L28.4477 17.2414C28.5016 17.2378 28.5303 17.209 28.5339 17.1551L28.5343 17.1432C28.5343 17.0828 28.5054 17.0507 28.4477 17.0469L28.4358 17.0465V17.0181C28.4728 17.0181 28.5059 17.0272 28.5295 17.0504C28.5533 17.0737 28.5626 17.1065 28.5626 17.1432C28.5626 17.1804 28.5533 17.2136 28.5297 17.2372C28.5061 17.2608 28.473 17.2701 28.4358 17.2701H27.0429C27.0057 17.2701 26.9726 17.2608 26.949 17.2372C26.9254 17.2136 26.916 17.1804 26.916 17.1432ZM28.0954 16.0275C28.0954 15.967 28.0666 15.9349 28.0088 15.9311L27.9969 15.9308V15.9024C28.034 15.9024 28.067 15.9115 28.0907 15.9347C28.1144 15.958 28.1238 15.9907 28.1238 16.0275C28.1238 16.0647 28.1145 16.0978 28.0909 16.1214C28.0672 16.1451 28.0341 16.1544 27.9969 16.1544H27.168V17.0181H28.4358V17.0465H27.1396V16.126H27.9969L28.0088 16.1256C28.0627 16.1221 28.0915 16.0933 28.0951 16.0394L28.0954 16.0275ZM28.5343 14.9433C28.5343 14.8817 28.5054 14.849 28.4477 14.8452L28.4358 14.8448V14.8164C28.473 14.8164 28.5061 14.8257 28.5297 14.8494C28.5533 14.873 28.5626 14.9061 28.5626 14.9433C28.5626 14.9801 28.5533 15.0128 28.5295 15.0361C28.5059 15.0593 28.4728 15.0684 28.4358 15.0684H27.168V15.9024H27.9969V15.9308H27.1396V15.04H28.4358L28.4477 15.0396C28.5016 15.0361 28.5303 15.0079 28.5339 14.955L28.5343 14.9433ZM28.4358 14.8164V14.8448H27.0429V14.8164H28.4358Z" fill="#1CA3BB"/>
<path d="M24.3527 17.2445C24.3229 17.2445 24.2987 17.2358 24.2801 17.2184C24.2628 17.2011 24.2541 17.1775 24.2541 17.1478V15.039H23.4638C23.434 15.039 23.4099 15.0303 23.3913 15.013C23.3739 14.9956 23.3652 14.9721 23.3652 14.9423C23.3652 14.9126 23.3739 14.889 23.3913 14.8716C23.4099 14.853 23.434 14.8438 23.4638 14.8438H25.2415C25.2713 14.8438 25.2948 14.853 25.3122 14.8716C25.3295 14.889 25.3382 14.9126 25.3382 14.9423C25.3382 14.9721 25.3295 14.9956 25.3122 15.013C25.2948 15.0303 25.2713 15.039 25.2415 15.039H24.4494V17.1478C24.4494 17.1763 24.4401 17.1998 24.4215 17.2184C24.4041 17.2358 24.3812 17.2445 24.3527 17.2445Z" fill="#1CA3BB"/>
<path d="M24.2268 17.1488V15.0684H23.4648C23.4292 15.0684 23.3977 15.0578 23.3729 15.0347L23.3726 15.0344L23.3722 15.034C23.3485 15.0103 23.3379 14.9789 23.3379 14.9433C23.3379 14.9078 23.3485 14.8764 23.3722 14.8526C23.3969 14.828 23.4286 14.8164 23.4648 14.8164V14.8448L23.4593 14.8449C23.4321 14.846 23.4097 14.8552 23.3923 14.8727C23.3749 14.89 23.3662 14.9136 23.3662 14.9433L23.3667 14.9542C23.3686 14.9789 23.3771 14.9988 23.3923 15.014C23.4086 15.0292 23.4291 15.0377 23.4539 15.0396L23.4648 15.04H24.2551V17.1488C24.2551 17.1785 24.2638 17.2021 24.2811 17.2194C24.2974 17.2346 24.318 17.2432 24.3428 17.2451L24.3537 17.2455C24.3804 17.2455 24.4022 17.2379 24.4191 17.2226L24.4225 17.2194C24.4411 17.2009 24.4504 17.1773 24.4504 17.1488V15.04H25.2425L25.2534 15.0396C25.2781 15.0377 25.298 15.0292 25.3132 15.014C25.3284 14.9988 25.3369 14.9789 25.3388 14.9542L25.3393 14.9433C25.3393 14.9136 25.3306 14.89 25.3132 14.8727C25.2969 14.8552 25.2752 14.846 25.2481 14.8449L25.2425 14.8448V14.8164C25.2784 14.8164 25.3097 14.8278 25.3332 14.8526C25.357 14.8764 25.3676 14.9078 25.3676 14.9433C25.3676 14.9789 25.357 15.0103 25.3333 15.034C25.3095 15.0578 25.2781 15.0684 25.2425 15.0684H24.4787V17.1488C24.4787 17.1841 24.4669 17.2151 24.4425 17.2395C24.419 17.263 24.3884 17.2738 24.3537 17.2738C24.318 17.2738 24.2865 17.2633 24.2618 17.2402L24.2611 17.2395C24.2373 17.2157 24.2268 17.1843 24.2268 17.1488ZM25.2425 14.8164V14.8448H23.4648V14.8164H25.2425Z" fill="#1CA3BB"/>
<path d="M25.5391 1.87109C25.8704 1.87113 26.2019 1.91327 26.5332 1.99609C26.8645 2.06975 27.196 2.18885 27.5273 2.35449L27.1133 3.63965C26.9383 3.56599 26.7306 3.51046 26.4912 3.47363C26.2519 3.42764 26.0261 3.4043 25.8145 3.4043C25.5108 3.40433 25.2527 3.44549 25.041 3.52832C24.8387 3.61111 24.6827 3.7404 24.5723 3.91504C24.4618 4.08998 24.4062 4.32102 24.4062 4.60645V9.13574C24.4062 9.42094 24.4565 9.65129 24.5576 9.82617C24.6589 9.9919 24.8022 10.1164 24.9863 10.1992C25.1796 10.2728 25.4143 10.3096 25.6904 10.3096C25.9758 10.3096 26.257 10.2818 26.5332 10.2266C26.8092 10.1714 27.0485 10.1122 27.251 10.0479C27.4627 9.98343 27.5916 9.94575 27.6377 9.93652L27.8584 11.3867C27.4626 11.534 27.0757 11.6496 26.6982 11.7324C26.3209 11.8244 25.9571 11.8701 25.6074 11.8701C25.0367 11.8701 24.5441 11.7689 24.1299 11.5664C23.7249 11.3547 23.4114 11.0466 23.1904 10.6416C22.9787 10.2365 22.873 9.74314 22.873 9.16309V4.64746C22.873 4.03979 22.9886 3.52858 23.2188 3.11426C23.458 2.70024 23.7753 2.39197 24.1709 2.18945C24.576 1.97769 25.0327 1.87109 25.5391 1.87109ZM59.0605 1.89941C59.3182 1.89943 59.5718 1.91729 59.8203 1.9541C60.0687 1.99092 60.317 2.04652 60.5654 2.12012C60.8139 2.19374 61.0486 2.29053 61.2695 2.41016L60.8281 3.68066C60.644 3.59782 60.4506 3.52887 60.248 3.47363C60.0548 3.41841 59.8568 3.37723 59.6543 3.34961C59.4517 3.32199 59.244 3.30762 59.0322 3.30762C58.885 3.30765 58.7191 3.32649 58.5352 3.36328C58.3604 3.39091 58.19 3.44105 58.0244 3.51465C57.8588 3.58824 57.7208 3.68963 57.6104 3.81836C57.5091 3.94717 57.4581 4.10858 57.458 4.30176C57.458 4.49511 57.5225 4.67063 57.6514 4.82715C57.7895 4.97446 57.9695 5.11231 58.1904 5.24121C58.4113 5.37003 58.6595 5.49912 58.9355 5.62793C59.2209 5.74758 59.5112 5.88107 59.8057 6.02832C60.1094 6.16639 60.3996 6.32317 60.6758 6.49805C60.9611 6.67293 61.2146 6.87537 61.4355 7.10547C61.6565 7.33565 61.832 7.60339 61.9609 7.90723C62.0988 8.21085 62.1679 8.56052 62.168 8.95605C62.168 9.47163 62.0757 9.91395 61.8916 10.2822C61.7075 10.6504 61.4495 10.954 61.1182 11.1934C60.7959 11.4235 60.427 11.5946 60.0127 11.7051C59.5985 11.8155 59.1613 11.8701 58.7012 11.8701C58.3054 11.8701 57.9095 11.8155 57.5137 11.7051C57.127 11.6038 56.7581 11.4516 56.4082 11.249C56.0676 11.0465 55.764 10.793 55.4971 10.4893L56.3398 9.46777C56.5423 9.67938 56.7726 9.85863 57.0303 10.0059C57.2971 10.1439 57.5732 10.2496 57.8584 10.3232C58.1529 10.3969 58.4432 10.4345 58.7285 10.4346C58.9495 10.4346 59.1662 10.4068 59.3779 10.3516C59.5897 10.2871 59.7831 10.1949 59.958 10.0752C60.1329 9.9555 60.2708 9.80328 60.3721 9.61914C60.4733 9.43501 60.5244 9.2183 60.5244 8.96973C60.5243 8.72144 60.4598 8.50526 60.3311 8.32129C60.2022 8.12794 60.0266 7.95786 59.8057 7.81055C59.5848 7.65407 59.3367 7.51071 59.0605 7.38184C58.7844 7.24374 58.4987 7.11033 58.2041 6.98145C57.9187 6.84334 57.6375 6.69558 57.3613 6.53906C57.0854 6.37348 56.837 6.18965 56.6162 5.9873C56.3952 5.77554 56.2197 5.53556 56.0908 5.26855C55.9621 4.99253 55.8975 4.67516 55.8975 4.31641C55.8975 3.87448 55.9942 3.50109 56.1875 3.19727C56.3808 2.88422 56.6342 2.63532 56.9473 2.45117C57.2695 2.25788 57.6152 2.11996 57.9834 2.03711C58.3515 1.9451 58.7108 1.89941 59.0605 1.89941ZM30.1289 6.17871C30.1289 6.64062 30.3119 7.0343 30.6777 7.36035C30.969 7.61845 31.3142 7.7441 31.7139 7.7373C32.1135 7.73049 32.4627 7.592 32.7607 7.32031C33.0588 7.04181 33.221 6.70154 33.248 6.30078V1.96973H34.7217V6.17871C34.7217 6.91913 34.4949 7.55809 34.041 8.09473C33.5941 8.63122 33.0585 8.97355 32.4355 9.12305V11.7119H30.9619V9.12305C30.3726 8.98039 29.8573 8.66783 29.417 8.18555C28.9837 7.69656 28.7367 7.11563 28.6758 6.44336C28.669 6.37399 28.666 3.35362 28.666 1.96973H30.1289V6.17871ZM38.7881 2.03711C39.3221 2.03711 39.7877 2.1338 40.1836 2.32715C40.5885 2.52049 40.9012 2.80173 41.1221 3.16992C41.343 3.52893 41.4541 3.96599 41.4541 4.48145C41.4541 4.76669 41.4173 5.02929 41.3438 5.26855C41.2793 5.50794 41.1772 5.72462 41.0391 5.91797C40.901 6.11124 40.7308 6.28144 40.5283 6.42871C40.8045 6.5484 41.049 6.71946 41.2607 6.94043C41.4815 7.16133 41.6519 7.43282 41.7715 7.75488C41.9003 8.06783 41.9648 8.43601 41.9648 8.85938C41.9648 9.43022 41.8493 9.9325 41.6191 10.3652C41.389 10.7886 41.0532 11.12 40.6113 11.3594C40.1786 11.5896 39.6396 11.7051 38.9951 11.7051H35.957V2.03711H38.7881ZM47.7051 3.55664H44.6113V5.9873H46.5029L46.0752 7.4375H44.6113V10.3096H47.6768V11.7051H43.0781V2.03711H47.7051V3.55664ZM51.8477 2.03711C52.2067 2.03711 52.5658 2.08821 52.9248 2.18945C53.2838 2.2907 53.6107 2.46538 53.9053 2.71387C54.1999 2.96246 54.4354 3.31252 54.6104 3.76367C54.7852 4.20554 54.8721 4.76713 54.8721 5.44824C54.8721 5.99147 54.822 6.46151 54.7207 6.85742C54.6286 7.25317 54.4952 7.58462 54.3203 7.85156C54.1547 8.11839 53.961 8.32984 53.7402 8.48633L54.9277 11.7051H53.2979L52.3447 8.98438C52.2897 8.99352 52.2347 8.99803 52.1797 8.99805H50.3701V11.7051H48.8369V2.03711H51.8477ZM64.8281 5.9873H67.7422V2.03711H69.2617V11.7051H67.7422V7.4375H64.8281V11.7051H63.2949V2.03711H64.8281V5.9873ZM72.0889 11.7051H70.5107V2.0752H72.0889V11.7051ZM77.9424 3.55664H74.8486V5.9873H76.7412L76.3125 7.4375H74.8486V10.3096H77.915V11.7051H73.3164V2.03711H77.9424V3.55664ZM80.6074 10.2959H84.0742V11.7051H79.0752V2.03711H80.6074V10.2959ZM87.7812 2.03711C88.4441 2.03712 89.0154 2.16157 89.4941 2.41016C89.9727 2.64954 90.3409 2.99973 90.5986 3.45996C90.8655 3.92026 90.999 4.48177 90.999 5.14453V8.8457C90.999 9.45321 90.8888 9.97359 90.668 10.4062C90.4563 10.8296 90.1292 11.1521 89.6875 11.373C89.2548 11.594 88.7112 11.7051 88.0576 11.7051H85.1709V2.03711H87.7812ZM37.4902 10.2959H38.5947C38.8249 10.2959 39.0649 10.2592 39.3135 10.1855C39.5619 10.1027 39.7734 9.95483 39.9482 9.74316C40.1231 9.53141 40.2109 9.22783 40.2109 8.83203C40.2109 8.51901 40.1465 8.26114 40.0176 8.05859C39.8887 7.85604 39.6953 7.70382 39.4375 7.60254C39.1797 7.50129 38.8528 7.45119 38.457 7.45117H37.4902V10.2959ZM86.7041 10.2959H87.8506C88.2371 10.2959 88.5408 10.2547 88.7617 10.1719C88.9826 10.0891 89.1394 9.98331 89.2314 9.85449C89.3327 9.71638 89.3972 9.5731 89.4248 9.42578C89.4524 9.26947 89.4658 9.12232 89.4658 8.98438V5.00684C89.4658 4.67538 89.4113 4.40764 89.3008 4.20508C89.1903 3.99337 89.0192 3.83759 88.7891 3.73633C88.5681 3.63507 88.278 3.58398 87.9189 3.58398H86.7041V10.2959ZM50.3701 7.54785H51.2812C51.6403 7.54785 51.9492 7.52455 52.207 7.47852C52.4647 7.43248 52.6761 7.34018 52.8418 7.20215C53.0075 7.05488 53.1275 6.84346 53.2012 6.56738C53.284 6.29117 53.3252 5.91781 53.3252 5.44824C53.3252 5.01574 53.284 4.67529 53.2012 4.42676C53.1275 4.16896 53.0075 3.98005 52.8418 3.86035C52.6761 3.73155 52.4647 3.64815 52.207 3.61133C51.9492 3.5745 51.6403 3.55664 51.2812 3.55664H50.3701V7.54785ZM37.4902 5.9873H38.1533C38.5123 5.98728 38.8025 5.95059 39.0234 5.87695C39.2535 5.79408 39.4193 5.65968 39.5205 5.47559C39.6308 5.28238 39.6855 5.0249 39.6855 4.70312C39.6855 4.41791 39.6353 4.19206 39.5342 4.02637C39.4329 3.86064 39.2762 3.74065 39.0645 3.66699C38.8619 3.59334 38.6041 3.55664 38.291 3.55664H37.4902V5.9873Z" fill="white"/>
</svg>
