<svg width="1000" height="1000" viewBox="0 0 1000 1000" fill="none" xmlns="http://www.w3.org/2000/svg">
<rect width="1000" height="1000" rx="500" fill="#170F0A"/>
<path d="M436.423 685.469C443.996 693.048 438.628 706 427.913 706H306.029C299.386 706 294 700.614 294 693.971V571.977C294 561.258 306.963 555.892 314.539 563.475L436.423 685.469Z" fill="white"/>
<path d="M294 306.029V416.606C294 425.269 302.881 431.092 310.826 427.637L565.137 317.061C577.101 311.859 573.386 294 560.34 294H306.029C299.386 294 294 299.386 294 306.029Z" fill="white"/>
<path d="M388.743 512.399L488.982 612.727C494.932 618.683 505.002 616.841 508.459 609.165L590.585 426.845C595.132 416.751 584.782 406.393 574.685 410.933L392.32 492.925C384.642 496.377 382.793 506.444 388.743 512.399Z" fill="white"/>
<path d="M585.352 705.996H693.971C700.614 705.996 706 700.61 706 693.966V444.562C706 431.52 688.15 427.802 682.942 439.759L574.324 689.163C570.863 697.109 576.686 705.996 585.352 705.996Z" fill="white"/>
<path d="M610.754 314.535L685.465 389.246C693.043 396.824 706 391.456 706 380.74V306.029C706 299.386 700.614 294 693.971 294H619.26C608.543 294 603.176 306.957 610.754 314.535Z" fill="white"/>
<path d="M610.754 314.535L685.465 389.246C693.043 396.824 706 391.456 706 380.74V306.029C706 299.386 700.614 294 693.971 294H619.26C608.543 294 603.176 306.957 610.754 314.535Z" fill="url(#paint0_linear_1240_190)"/>
<defs>
<linearGradient id="paint0_linear_1240_190" x1="648.109" y1="359.637" x2="725.416" y2="320.318" gradientUnits="userSpaceOnUse">
<stop offset="0.132381" stop-color="#FF6A00"/>
<stop offset="0.634466" stop-color="#FF8C2B"/>
</linearGradient>
</defs>
</svg>
