<svg width="165" height="34" viewBox="0 0 165 34" fill="none" xmlns="http://www.w3.org/2000/svg">
<path d="M56.6445 24.9688V9.03125H60.0312V24.9688H56.6445ZM50.8672 25.5C49.3398 25.5 47.9453 25.1237 46.6836 24.3711C45.4219 23.6185 44.4147 22.6003 43.6621 21.3164C42.9316 20.0104 42.5664 18.5716 42.5664 17C42.5664 15.4063 42.9316 13.9674 43.6621 12.6836C44.4147 11.3997 45.4108 10.3815 46.6504 9.62891C47.9121 8.8763 49.3177 8.5 50.8672 8.5C52.3503 8.5 53.6895 8.8763 54.8848 9.62891C56.0801 10.3815 57.0319 11.3997 57.7402 12.6836C58.4486 13.9674 58.8027 15.4063 58.8027 17C58.8027 18.5716 58.4486 20.0104 57.7402 21.3164C57.0319 22.6003 56.0801 23.6185 54.8848 24.3711C53.6895 25.1237 52.3503 25.5 50.8672 25.5ZM51.332 22.2461C52.3281 22.2461 53.2246 22.0137 54.0215 21.5488C54.8184 21.084 55.4492 20.4531 55.9141 19.6562C56.401 18.8594 56.6445 17.974 56.6445 17C56.6445 16.0039 56.401 15.1185 55.9141 14.3438C55.4492 13.5469 54.8184 12.916 54.0215 12.4512C53.2246 11.9863 52.3281 11.7539 51.332 11.7539C50.3359 11.7539 49.4395 11.9863 48.6426 12.4512C47.8457 12.916 47.2148 13.5469 46.75 14.3438C46.2852 15.1185 46.0527 16.0039 46.0527 17C46.0527 17.974 46.2852 18.8594 46.75 19.6562C47.2148 20.4531 47.8457 21.084 48.6426 21.5488C49.4395 22.0137 50.3359 22.2461 51.332 22.2461Z" fill="white"/>
<path d="M76.8305 24.9688V1.0625H80.2172V24.9688H76.8305ZM70.9535 25.5C69.4262 25.5 68.0316 25.1237 66.7699 24.3711C65.5082 23.6185 64.501 22.6003 63.7484 21.3164C63.018 20.0104 62.6527 18.5716 62.6527 17C62.6527 15.4063 63.018 13.9674 63.7484 12.6836C64.501 11.3997 65.4971 10.3815 66.7367 9.62891C67.9984 8.8763 69.404 8.5 70.9535 8.5C72.4366 8.5 73.7758 8.8763 74.9711 9.62891C76.1664 10.3815 77.1182 11.3997 77.8266 12.6836C78.5349 13.9674 78.8891 15.4063 78.8891 17C78.8891 18.5716 78.5349 20.0104 77.8266 21.3164C77.1182 22.6003 76.1664 23.6185 74.9711 24.3711C73.7758 25.1237 72.4366 25.5 70.9535 25.5ZM71.4184 22.2461C72.4145 22.2461 73.3109 22.0137 74.1078 21.5488C74.9047 21.084 75.5356 20.4531 76.0004 19.6562C76.4874 18.8594 76.7309 17.974 76.7309 17C76.7309 16.0039 76.4874 15.1185 76.0004 14.3438C75.5356 13.5469 74.9047 12.916 74.1078 12.4512C73.3109 11.9863 72.4145 11.7539 71.4184 11.7539C70.4223 11.7539 69.5258 11.9863 68.7289 12.4512C67.932 12.916 67.3012 13.5469 66.8363 14.3438C66.3715 15.1185 66.1391 16.0039 66.1391 17C66.1391 17.974 66.3715 18.8594 66.8363 19.6562C67.3012 20.4531 67.932 21.084 68.7289 21.5488C69.5258 22.0137 70.4223 22.2461 71.4184 22.2461Z" fill="white"/>
<path d="M83.8016 24.9688V1.0625H87.2547V24.9688H83.8016Z" fill="white"/>
<path d="M93.5472 32.8711L103.608 9.03125H107.393L97.0003 32.8711H93.5472ZM96.9007 24.9688L88.7992 9.03125H92.8831L100.42 24.9688H96.9007Z" fill="white"/>
<path d="M109.163 24.9688V9.03125H112.716V12.75L112.151 12.1191C112.771 11.0345 113.59 10.1602 114.608 9.49609C115.649 8.83203 116.8 8.5 118.061 8.5C119.434 8.5 120.662 8.85417 121.747 9.5625C122.854 10.2487 123.728 11.1784 124.37 12.3516C125.012 13.5026 125.333 14.8086 125.333 16.2695V24.9688H121.78V16.2695C121.78 15.4284 121.581 14.6647 121.183 13.9785C120.784 13.2923 120.242 12.75 119.556 12.3516C118.869 11.931 118.106 11.7207 117.265 11.7207C116.423 11.7207 115.66 11.9421 114.974 12.3848C114.287 12.8053 113.734 13.3919 113.313 14.1445C112.915 14.875 112.716 15.694 112.716 16.6016V24.9688H109.163Z" fill="white"/>
<path d="M137.19 33.2695C135.839 33.2695 134.555 32.9818 133.338 32.4063C132.143 31.8307 131.136 31.0449 130.317 30.0488C129.498 29.0527 128.977 27.957 128.756 26.7617H132.276C132.43 27.3594 132.74 27.9017 133.205 28.3887C133.692 28.8978 134.279 29.2962 134.965 29.584C135.673 29.8717 136.415 30.0156 137.19 30.0156C138.119 30.0156 138.949 29.7832 139.68 29.3184C140.432 28.8535 141.03 28.2227 141.473 27.4258C141.916 26.651 142.137 25.7656 142.137 24.7695V9.03125H145.562L145.59 24.7695C145.59 26.3411 145.214 27.7689 144.461 29.0527C143.708 30.3587 142.701 31.388 141.44 32.1406C140.178 32.8932 138.761 33.2695 137.19 33.2695ZM136.26 25.5C134.733 25.5 133.338 25.1237 132.076 24.3711C130.815 23.6185 129.807 22.6003 129.055 21.3164C128.324 20.0104 127.959 18.5716 127.959 17C127.959 15.4063 128.324 13.9674 129.055 12.6836C129.807 11.3997 130.804 10.3815 132.043 9.62891C133.305 8.8763 134.71 8.5 136.26 8.5C137.743 8.5 139.082 8.8763 140.277 9.62891C141.473 10.3815 142.425 11.3997 143.133 12.6836C143.841 13.9674 144.195 15.4063 144.195 17C144.195 18.5716 143.841 20.0104 143.133 21.3164C142.425 22.6003 141.473 23.6185 140.277 24.3711C139.082 25.1237 137.743 25.5 136.26 25.5ZM136.725 22.2461C137.721 22.2461 138.617 22.0137 139.414 21.5488C140.211 21.084 140.842 20.4531 141.307 19.6562C141.794 18.8594 142.037 17.974 142.037 17C142.037 16.0039 141.794 15.1185 141.307 14.3438C140.842 13.5469 140.211 12.916 139.414 12.4512C138.617 11.9863 137.721 11.7539 136.725 11.7539C135.729 11.7539 134.832 11.9863 134.035 12.4512C133.238 12.916 132.608 13.5469 132.143 14.3438C131.678 15.1185 131.445 16.0039 131.445 17C131.445 17.974 131.678 18.8594 132.143 19.6562C132.608 20.4531 133.238 21.084 134.035 21.5488C134.832 22.0137 135.729 22.2461 136.725 22.2461Z" fill="white"/>
<path d="M156.21 25.5C154.616 25.5 153.166 25.1237 151.86 24.3711C150.554 23.6185 149.514 22.6003 148.739 21.3164C147.986 20.0104 147.61 18.5716 147.61 17C147.61 15.4063 147.986 13.9674 148.739 12.6836C149.514 11.3997 150.554 10.3815 151.86 9.62891C153.166 8.8763 154.605 8.5 156.176 8.5C157.792 8.5 159.242 8.8763 160.526 9.62891C161.832 10.3815 162.861 11.3997 163.614 12.6836C164.389 13.9674 164.776 15.4063 164.776 17C164.776 18.5716 164.389 20.0104 163.614 21.3164C162.861 22.6003 161.832 23.6185 160.526 24.3711C159.242 25.1237 157.803 25.5 156.21 25.5ZM156.21 22.2793C157.161 22.2793 158.025 22.0469 158.799 21.582C159.574 21.1172 160.194 20.4863 160.659 19.6895C161.124 18.8704 161.356 17.974 161.356 17C161.356 16.0039 161.124 15.1074 160.659 14.3105C160.194 13.5137 159.574 12.8828 158.799 12.418C158.025 11.931 157.161 11.6875 156.21 11.6875C155.258 11.6875 154.383 11.931 153.587 12.418C152.812 12.8828 152.192 13.5137 151.727 14.3105C151.262 15.1074 151.03 16.0039 151.03 17C151.03 17.974 151.262 18.8704 151.727 19.6895C152.192 20.4863 152.812 21.1172 153.587 21.582C154.361 22.0469 155.236 22.2793 156.21 22.2793Z" fill="white"/>
<path d="M11.7534 32.3057C12.3783 32.9312 11.9353 34 11.0511 34H0.992701C0.444447 34 0 33.5556 0 33.0073V22.9399C0 22.0553 1.06973 21.6124 1.69496 22.2382L11.7534 32.3057Z" fill="white"/>
<path d="M0 0.992697V10.118C0 10.8329 0.732913 11.3134 1.38854 11.0283L22.3754 1.90306C23.3627 1.47376 23.0562 0 21.9795 0H0.992701C0.444447 0 0 0.444446 0 0.992697Z" fill="white"/>
<path d="M7.81857 18.0232L16.0907 26.3027C16.5818 26.7942 17.4128 26.6422 17.6981 26.0088L24.4755 10.9629C24.8507 10.1299 23.9965 9.27519 23.1633 9.64981L8.11376 16.4162C7.4802 16.701 7.3276 17.5318 7.81857 18.0232Z" fill="white"/>
<path d="M24.0437 33.9996H33.0073C33.5556 33.9996 34 33.5552 34 33.0069V12.425C34 11.3487 32.5269 11.0419 32.0972 12.0287L23.1335 32.6106C22.848 33.2663 23.3285 33.9996 24.0437 33.9996Z" fill="white"/>
<path d="M26.1399 1.69464L32.3054 7.86007C32.9307 8.48543 34 8.04253 34 7.15813V0.992697C34 0.444446 33.5556 0 33.0073 0H26.8418C25.9574 0 25.5145 1.06928 26.1399 1.69464Z" fill="white"/>
<path d="M26.1399 1.69464L32.3054 7.86007C32.9307 8.48543 34 8.04253 34 7.15813V0.992697C34 0.444446 33.5556 0 33.0073 0H26.8418C25.9574 0 25.5145 1.06928 26.1399 1.69464Z" fill="url(#paint0_linear_137_1857)"/>
<defs>
<linearGradient id="paint0_linear_137_1857" x1="29.2226" y1="5.41669" x2="35.6023" y2="2.17189" gradientUnits="userSpaceOnUse">
<stop offset="0.132381" stop-color="#FF6A00"/>
<stop offset="0.634466" stop-color="#FF8C2B"/>
</linearGradient>
</defs>
</svg>
